{
	"asset":{
		"generator":"Khronos glTF Blender I/O v4.0.44",
		"version":"2.0"
	},
	"extensionsUsed":[
		"KHR_materials_specular",
		"KHR_materials_ior",
		"KHR_materials_emissive_strength"
	],
	"scene":0,
	"scenes":[
		{
			"name":"Scene",
			"nodes":[
				0,
				1,
				2,
				3,
				4
			]
		}
	],
	"nodes":[
		{
			"mesh":0,
			"name":"snow_roof",
			"translation":[
				0,
				2.52742600440979,
				0
			]
		},
		{
			"mesh":1,
			"name":"House",
			"translation":[
				0,
				2.548224687576294,
				0
			]
		},
		{
			"mesh":2,
			"name":"Door",
			"translation":[
				0.5459215641021729,
				1.222374439239502,
				-2.1811790466308594
			]
		},
		{
			"mesh":3,
			"name":"Lamp",
			"translation":[
				-1.2593302726745605,
				2.340996503829956,
				-2.2267303466796875
			]
		},
		{
			"mesh":4,
			"name":"garland",
			"translation":[
				0.0488082692027092,
				1.6241612434387207,
				-2.173511505126953
			]
		}
	],
	"materials":[
		{
			"doubleSided":true,
			"extensions":{
				"KHR_materials_specular":{
					"specularFactor":0.040908925235271454
				},
				"KHR_materials_ior":{
					"ior":1.4500000476837158
				}
			},
			"name":"Snow",
			"pbrMetallicRoughness":{
				"baseColorFactor":[
					0.7129353284835815,
					0.7372283339500427,
					0.8999999165534973,
					1
				],
				"metallicFactor":0
			}
		},
		{
			"doubleSided":true,
			"name":"Wood_house",
			"pbrMetallicRoughness":{
				"baseColorFactor":[
					0.243287593126297,
					0.10504896193742752,
					0.02279709279537201,
					1
				],
				"metallicFactor":0,
				"roughnessFactor":0.699999988079071
			}
		},
		{
			"doubleSided":true,
			"name":"Metall",
			"pbrMetallicRoughness":{
				"baseColorFactor":[
					0.21315047144889832,
					0.14107747375965118,
					0.03897053375840187,
					1
				],
				"metallicFactor":0.7727272510528564,
				"roughnessFactor":0.5649999976158142
			}
		},
		{
			"doubleSided":true,
			"emissiveFactor":[
				1,
				0.6873505711555481,
				0.32491031289100647
			],
			"extensions":{
				"KHR_materials_emissive_strength":{
					"emissiveStrength":6
				}
			},
			"name":"Lamp_emission",
			"pbrMetallicRoughness":{
				"baseColorFactor":[
					0,
					0,
					0,
					1
				]
			}
		},
		{
			"doubleSided":true,
			"name":"Wood_house2",
			"pbrMetallicRoughness":{
				"baseColorFactor":[
					0.2825339436531067,
					0.1243434026837349,
					0.023698098957538605,
					1
				],
				"metallicFactor":0,
				"roughnessFactor":0.699999988079071
			}
		},
		{
			"doubleSided":true,
			"extensions":{
				"KHR_materials_specular":{
					"specularFactor":0.15454542636871338
				},
				"KHR_materials_ior":{
					"ior":1.4500000476837158
				}
			},
			"name":"Leaves",
			"pbrMetallicRoughness":{
				"baseColorFactor":[
					0.02684127539396286,
					0.18404455482959747,
					0.04433967173099518,
					1
				],
				"metallicFactor":0,
				"roughnessFactor":0.9772727489471436
			}
		},
		{
			"doubleSided":true,
			"name":"gold_candy",
			"pbrMetallicRoughness":{
				"baseColorFactor":[
					0.8000000715255737,
					0.4106799066066742,
					0.040312811732292175,
					1
				],
				"metallicFactor":0.17272727191448212,
				"roughnessFactor":0.20000000298023224
			}
		},
		{
			"doubleSided":true,
			"name":"red_candy",
			"pbrMetallicRoughness":{
				"baseColorFactor":[
					0.8000000715255737,
					0.10534490644931793,
					0.09042529761791229,
					1
				],
				"metallicFactor":0,
				"roughnessFactor":0.699999988079071
			}
		},
		{
			"doubleSided":true,
			"extensions":{
				"KHR_materials_specular":{
					"specularFactor":0.15454542636871338
				},
				"KHR_materials_ior":{
					"ior":1.4500000476837158
				}
			},
			"name":"Leaves_2",
			"pbrMetallicRoughness":{
				"baseColorFactor":[
					0.03712771087884903,
					0.2680719792842865,
					0.06244426965713501,
					1
				],
				"metallicFactor":0,
				"roughnessFactor":0.9772727489471436
			}
		}
	],
	"meshes":[
		{
			"name":"Cube.001",
			"primitives":[
				{
					"attributes":{
						"POSITION":0,
						"NORMAL":1,
						"TEXCOORD_0":2
					},
					"indices":3,
					"material":0
				}
			]
		},
		{
			"name":"Cylinder.057",
			"primitives":[
				{
					"attributes":{
						"POSITION":4,
						"NORMAL":5,
						"TEXCOORD_0":6
					},
					"indices":7,
					"material":1
				},
				{
					"attributes":{
						"POSITION":8,
						"NORMAL":9,
						"TEXCOORD_0":10
					},
					"indices":11,
					"material":2
				},
				{
					"attributes":{
						"POSITION":12,
						"NORMAL":13,
						"TEXCOORD_0":14
					},
					"indices":15,
					"material":3
				},
				{
					"attributes":{
						"POSITION":16,
						"NORMAL":17,
						"TEXCOORD_0":18
					},
					"indices":19,
					"material":4
				}
			]
		},
		{
			"name":"Cylinder.058",
			"primitives":[
				{
					"attributes":{
						"POSITION":20,
						"NORMAL":21,
						"TEXCOORD_0":22
					},
					"indices":23,
					"material":4
				},
				{
					"attributes":{
						"POSITION":24,
						"NORMAL":25,
						"TEXCOORD_0":26
					},
					"indices":27,
					"material":2
				}
			]
		},
		{
			"name":"Cylinder.061",
			"primitives":[
				{
					"attributes":{
						"POSITION":28,
						"NORMAL":29,
						"TEXCOORD_0":30
					},
					"indices":31,
					"material":2
				},
				{
					"attributes":{
						"POSITION":32,
						"NORMAL":33,
						"TEXCOORD_0":34
					},
					"indices":35,
					"material":3
				}
			]
		},
		{
			"name":"Torus",
			"primitives":[
				{
					"attributes":{
						"POSITION":36,
						"NORMAL":37,
						"TEXCOORD_0":38
					},
					"indices":39,
					"material":5
				},
				{
					"attributes":{
						"POSITION":40,
						"NORMAL":41,
						"TEXCOORD_0":42
					},
					"indices":43,
					"material":6
				},
				{
					"attributes":{
						"POSITION":44,
						"NORMAL":45,
						"TEXCOORD_0":46
					},
					"indices":47,
					"material":7
				},
				{
					"attributes":{
						"POSITION":48,
						"NORMAL":49,
						"TEXCOORD_0":50
					},
					"indices":51,
					"material":8
				}
			]
		}
	],
	"accessors":[
		{
			"bufferView":0,
			"componentType":5126,
			"count":149,
			"max":[
				2.9667744636535645,
				2.3492190837860107,
				4.085319519042969
			],
			"min":[
				-2.9674007892608643,
				-0.15112154185771942,
				-3.092959403991699
			],
			"type":"VEC3"
		},
		{
			"bufferView":1,
			"componentType":5126,
			"count":149,
			"type":"VEC3"
		},
		{
			"bufferView":2,
			"componentType":5126,
			"count":149,
			"type":"VEC2"
		},
		{
			"bufferView":3,
			"componentType":5123,
			"count":660,
			"type":"SCALAR"
		},
		{
			"bufferView":4,
			"componentType":5126,
			"count":1340,
			"max":[
				3.0111961364746094,
				1.7932014465332031,
				4.107367515563965
			],
			"min":[
				-3.0111961364746094,
				-2.5139505863189697,
				-3.107367515563965
			],
			"type":"VEC3"
		},
		{
			"bufferView":5,
			"componentType":5126,
			"count":1340,
			"type":"VEC3"
		},
		{
			"bufferView":6,
			"componentType":5126,
			"count":1340,
			"type":"VEC2"
		},
		{
			"bufferView":7,
			"componentType":5123,
			"count":3096,
			"type":"SCALAR"
		},
		{
			"bufferView":8,
			"componentType":5126,
			"count":176,
			"max":[
				1.192007064819336,
				-0.6006709933280945,
				-2.0581600666046143
			],
			"min":[
				0.5913642048835754,
				-2.0145905017852783,
				-2.4131836891174316
			],
			"type":"VEC3"
		},
		{
			"bufferView":9,
			"componentType":5126,
			"count":176,
			"type":"VEC3"
		},
		{
			"bufferView":10,
			"componentType":5126,
			"count":176,
			"type":"VEC2"
		},
		{
			"bufferView":11,
			"componentType":5123,
			"count":384,
			"type":"SCALAR"
		},
		{
			"bufferView":12,
			"componentType":5126,
			"count":16,
			"max":[
				2.5259108543395996,
				-0.6848902702331543,
				0.8521671295166016
			],
			"min":[
				2.516270637512207,
				-1.6605420112609863,
				0.11904951930046082
			],
			"type":"VEC3"
		},
		{
			"bufferView":13,
			"componentType":5126,
			"count":16,
			"type":"VEC3"
		},
		{
			"bufferView":14,
			"componentType":5126,
			"count":16,
			"type":"VEC2"
		},
		{
			"bufferView":15,
			"componentType":5123,
			"count":24,
			"type":"SCALAR"
		},
		{
			"bufferView":16,
			"componentType":5126,
			"count":188,
			"max":[
				2.6463046073913574,
				-0.2121267318725586,
				1.0502243041992188
			],
			"min":[
				-0.6758344173431396,
				-2.492356538772583,
				-2.268918991088867
			],
			"type":"VEC3"
		},
		{
			"bufferView":17,
			"componentType":5126,
			"count":188,
			"type":"VEC3"
		},
		{
			"bufferView":18,
			"componentType":5126,
			"count":188,
			"type":"VEC2"
		},
		{
			"bufferView":19,
			"componentType":5123,
			"count":342,
			"type":"SCALAR"
		},
		{
			"bufferView":20,
			"componentType":5126,
			"count":188,
			"max":[
				0.015822410583496094,
				0.9198224544525146,
				0.17037272453308105
			],
			"min":[
				-1.0074198246002197,
				-1.166506290435791,
				0.017969369888305664
			],
			"type":"VEC3"
		},
		{
			"bufferView":21,
			"componentType":5126,
			"count":188,
			"type":"VEC3"
		},
		{
			"bufferView":22,
			"componentType":5126,
			"count":188,
			"type":"VEC2"
		},
		{
			"bufferView":23,
			"componentType":5123,
			"count":468,
			"type":"SCALAR"
		},
		{
			"bufferView":24,
			"componentType":5126,
			"count":559,
			"max":[
				0.025118863210082054,
				0.7556613087654114,
				0.05624843016266823
			],
			"min":[
				-1.0046135187149048,
				-0.7556613087654114,
				-0.05243130028247833
			],
			"type":"VEC3"
		},
		{
			"bufferView":25,
			"componentType":5126,
			"count":559,
			"type":"VEC3"
		},
		{
			"bufferView":26,
			"componentType":5126,
			"count":559,
			"type":"VEC2"
		},
		{
			"bufferView":27,
			"componentType":5123,
			"count":2010,
			"type":"SCALAR"
		},
		{
			"bufferView":28,
			"componentType":5126,
			"count":767,
			"max":[
				0.2543635666370392,
				0.223724827170372,
				0.043610744178295135
			],
			"min":[
				-0.24862758815288544,
				-0.557809054851532,
				-0.6169450879096985
			],
			"type":"VEC3"
		},
		{
			"bufferView":29,
			"componentType":5126,
			"count":767,
			"type":"VEC3"
		},
		{
			"bufferView":30,
			"componentType":5126,
			"count":767,
			"type":"VEC2"
		},
		{
			"bufferView":31,
			"componentType":5123,
			"count":3708,
			"type":"SCALAR"
		},
		{
			"bufferView":32,
			"componentType":5126,
			"count":16,
			"max":[
				0.11923574656248093,
				-0.15466563403606415,
				-0.24908174574375153
			],
			"min":[
				-0.11349976062774658,
				-0.48981621861457825,
				-0.48181724548339844
			],
			"type":"VEC3"
		},
		{
			"bufferView":33,
			"componentType":5126,
			"count":16,
			"type":"VEC3"
		},
		{
			"bufferView":34,
			"componentType":5126,
			"count":16,
			"type":"VEC2"
		},
		{
			"bufferView":35,
			"componentType":5123,
			"count":24,
			"type":"SCALAR"
		},
		{
			"bufferView":36,
			"componentType":5126,
			"count":117,
			"max":[
				0.25800982117652893,
				0.25800982117652893,
				0.0413094200193882
			],
			"min":[
				-0.25800982117652893,
				-0.25800982117652893,
				-0.05160197243094444
			],
			"type":"VEC3"
		},
		{
			"bufferView":37,
			"componentType":5126,
			"count":117,
			"type":"VEC3"
		},
		{
			"bufferView":38,
			"componentType":5126,
			"count":117,
			"type":"VEC2"
		},
		{
			"bufferView":39,
			"componentType":5123,
			"count":576,
			"type":"SCALAR"
		},
		{
			"bufferView":40,
			"componentType":5126,
			"count":438,
			"max":[
				0.26995253562927246,
				0.3000839650630951,
				0.048463888466358185
			],
			"min":[
				-0.273776650428772,
				-0.2539002001285553,
				-0.09416502714157104
			],
			"type":"VEC3"
		},
		{
			"bufferView":41,
			"componentType":5126,
			"count":438,
			"type":"VEC3"
		},
		{
			"bufferView":42,
			"componentType":5126,
			"count":438,
			"type":"VEC2"
		},
		{
			"bufferView":43,
			"componentType":5123,
			"count":1254,
			"type":"SCALAR"
		},
		{
			"bufferView":44,
			"componentType":5126,
			"count":1006,
			"max":[
				0.26894521713256836,
				0.2926766276359558,
				0.0479089729487896
			],
			"min":[
				-0.23040685057640076,
				-0.24833475053310394,
				-0.09639320522546768
			],
			"type":"VEC3"
		},
		{
			"bufferView":45,
			"componentType":5126,
			"count":1006,
			"type":"VEC3"
		},
		{
			"bufferView":46,
			"componentType":5126,
			"count":1006,
			"type":"VEC2"
		},
		{
			"bufferView":47,
			"componentType":5123,
			"count":3114,
			"type":"SCALAR"
		},
		{
			"bufferView":48,
			"componentType":5126,
			"count":200,
			"max":[
				0.28506529331207275,
				0.2753939628601074,
				0.05645914748311043
			],
			"min":[
				-0.2712780237197876,
				-0.2870684862136841,
				-0.0901574119925499
			],
			"type":"VEC3"
		},
		{
			"bufferView":49,
			"componentType":5126,
			"count":200,
			"type":"VEC3"
		},
		{
			"bufferView":50,
			"componentType":5126,
			"count":200,
			"type":"VEC2"
		},
		{
			"bufferView":51,
			"componentType":5123,
			"count":300,
			"type":"SCALAR"
		}
	],
	"bufferViews":[
		{
			"buffer":0,
			"byteLength":1788,
			"byteOffset":0,
			"target":34962
		},
		{
			"buffer":0,
			"byteLength":1788,
			"byteOffset":1788,
			"target":34962
		},
		{
			"buffer":0,
			"byteLength":1192,
			"byteOffset":3576,
			"target":34962
		},
		{
			"buffer":0,
			"byteLength":1320,
			"byteOffset":4768,
			"target":34963
		},
		{
			"buffer":0,
			"byteLength":16080,
			"byteOffset":6088,
			"target":34962
		},
		{
			"buffer":0,
			"byteLength":16080,
			"byteOffset":22168,
			"target":34962
		},
		{
			"buffer":0,
			"byteLength":10720,
			"byteOffset":38248,
			"target":34962
		},
		{
			"buffer":0,
			"byteLength":6192,
			"byteOffset":48968,
			"target":34963
		},
		{
			"buffer":0,
			"byteLength":2112,
			"byteOffset":55160,
			"target":34962
		},
		{
			"buffer":0,
			"byteLength":2112,
			"byteOffset":57272,
			"target":34962
		},
		{
			"buffer":0,
			"byteLength":1408,
			"byteOffset":59384,
			"target":34962
		},
		{
			"buffer":0,
			"byteLength":768,
			"byteOffset":60792,
			"target":34963
		},
		{
			"buffer":0,
			"byteLength":192,
			"byteOffset":61560,
			"target":34962
		},
		{
			"buffer":0,
			"byteLength":192,
			"byteOffset":61752,
			"target":34962
		},
		{
			"buffer":0,
			"byteLength":128,
			"byteOffset":61944,
			"target":34962
		},
		{
			"buffer":0,
			"byteLength":48,
			"byteOffset":62072,
			"target":34963
		},
		{
			"buffer":0,
			"byteLength":2256,
			"byteOffset":62120,
			"target":34962
		},
		{
			"buffer":0,
			"byteLength":2256,
			"byteOffset":64376,
			"target":34962
		},
		{
			"buffer":0,
			"byteLength":1504,
			"byteOffset":66632,
			"target":34962
		},
		{
			"buffer":0,
			"byteLength":684,
			"byteOffset":68136,
			"target":34963
		},
		{
			"buffer":0,
			"byteLength":2256,
			"byteOffset":68820,
			"target":34962
		},
		{
			"buffer":0,
			"byteLength":2256,
			"byteOffset":71076,
			"target":34962
		},
		{
			"buffer":0,
			"byteLength":1504,
			"byteOffset":73332,
			"target":34962
		},
		{
			"buffer":0,
			"byteLength":936,
			"byteOffset":74836,
			"target":34963
		},
		{
			"buffer":0,
			"byteLength":6708,
			"byteOffset":75772,
			"target":34962
		},
		{
			"buffer":0,
			"byteLength":6708,
			"byteOffset":82480,
			"target":34962
		},
		{
			"buffer":0,
			"byteLength":4472,
			"byteOffset":89188,
			"target":34962
		},
		{
			"buffer":0,
			"byteLength":4020,
			"byteOffset":93660,
			"target":34963
		},
		{
			"buffer":0,
			"byteLength":9204,
			"byteOffset":97680,
			"target":34962
		},
		{
			"buffer":0,
			"byteLength":9204,
			"byteOffset":106884,
			"target":34962
		},
		{
			"buffer":0,
			"byteLength":6136,
			"byteOffset":116088,
			"target":34962
		},
		{
			"buffer":0,
			"byteLength":7416,
			"byteOffset":122224,
			"target":34963
		},
		{
			"buffer":0,
			"byteLength":192,
			"byteOffset":129640,
			"target":34962
		},
		{
			"buffer":0,
			"byteLength":192,
			"byteOffset":129832,
			"target":34962
		},
		{
			"buffer":0,
			"byteLength":128,
			"byteOffset":130024,
			"target":34962
		},
		{
			"buffer":0,
			"byteLength":48,
			"byteOffset":130152,
			"target":34963
		},
		{
			"buffer":0,
			"byteLength":1404,
			"byteOffset":130200,
			"target":34962
		},
		{
			"buffer":0,
			"byteLength":1404,
			"byteOffset":131604,
			"target":34962
		},
		{
			"buffer":0,
			"byteLength":936,
			"byteOffset":133008,
			"target":34962
		},
		{
			"buffer":0,
			"byteLength":1152,
			"byteOffset":133944,
			"target":34963
		},
		{
			"buffer":0,
			"byteLength":5256,
			"byteOffset":135096,
			"target":34962
		},
		{
			"buffer":0,
			"byteLength":5256,
			"byteOffset":140352,
			"target":34962
		},
		{
			"buffer":0,
			"byteLength":3504,
			"byteOffset":145608,
			"target":34962
		},
		{
			"buffer":0,
			"byteLength":2508,
			"byteOffset":149112,
			"target":34963
		},
		{
			"buffer":0,
			"byteLength":12072,
			"byteOffset":151620,
			"target":34962
		},
		{
			"buffer":0,
			"byteLength":12072,
			"byteOffset":163692,
			"target":34962
		},
		{
			"buffer":0,
			"byteLength":8048,
			"byteOffset":175764,
			"target":34962
		},
		{
			"buffer":0,
			"byteLength":6228,
			"byteOffset":183812,
			"target":34963
		},
		{
			"buffer":0,
			"byteLength":2400,
			"byteOffset":190040,
			"target":34962
		},
		{
			"buffer":0,
			"byteLength":2400,
			"byteOffset":192440,
			"target":34962
		},
		{
			"buffer":0,
			"byteLength":1600,
			"byteOffset":194840,
			"target":34962
		},
		{
			"buffer":0,
			"byteLength":600,
			"byteOffset":196440,
			"target":34963
		}
	],
	"buffers":[
		{
			"byteLength":197040,
			"uri":"sample_house.bin"
		}
	]
}
