{
	"asset":{
		"generator":"Khronos glTF Blender I/O v4.0.44",
		"version":"2.0"
	},
	"extensionsUsed":[
		"KHR_materials_unlit"
	],
	"scene":0,
	"scenes":[
		{
			"name":"Scene",
			"nodes":[
				0
			]
		}
	],
	"nodes":[
		{
			"mesh":0,
			"name":"Cylinder",
			"scale":[
				6.803013324737549,
				2.9251961708068848,
				6.877302169799805
			],
			"translation":[
				0,
				3.9058313369750977,
				0
			]
		}
	],
	"materials":[
		{
			"doubleSided":true,
			"extensions":{
				"KHR_materials_unlit":{}
			},
			"name":"Wood procedural",
			"pbrMetallicRoughness":{
				"baseColorTexture":{
					"index":0,
					"texCoord":1
				},
				"metallicFactor":0,
				"roughnessFactor":0.9
			}
		}
	],
	"meshes":[
		{
			"name":"Cylinder",
			"primitives":[
				{
					"attributes":{
						"POSITION":0,
						"NORMAL":1,
						"TEXCOORD_0":2,
						"TEXCOORD_1":3
					},
					"indices":4,
					"material":0
				}
			]
		}
	],
	"textures":[
		{
			"sampler":0,
			"source":0
		}
	],
	"images":[
		{
			"mimeType":"image/png",
			"name":"wood",
			"uri":"wood.png"
		}
	],
	"accessors":[
		{
			"bufferView":0,
			"componentType":5126,
			"count":902,
			"max":[
				1,
				1,
				1
			],
			"min":[
				-1,
				-0.14215773344039917,
				-1
			],
			"type":"VEC3"
		},
		{
			"bufferView":1,
			"componentType":5126,
			"count":902,
			"type":"VEC3"
		},
		{
			"bufferView":2,
			"componentType":5126,
			"count":902,
			"type":"VEC2"
		},
		{
			"bufferView":3,
			"componentType":5126,
			"count":902,
			"type":"VEC2"
		},
		{
			"bufferView":4,
			"componentType":5123,
			"count":2010,
			"type":"SCALAR"
		}
	],
	"bufferViews":[
		{
			"buffer":0,
			"byteLength":10824,
			"byteOffset":0,
			"target":34962
		},
		{
			"buffer":0,
			"byteLength":10824,
			"byteOffset":10824,
			"target":34962
		},
		{
			"buffer":0,
			"byteLength":7216,
			"byteOffset":21648,
			"target":34962
		},
		{
			"buffer":0,
			"byteLength":7216,
			"byteOffset":28864,
			"target":34962
		},
		{
			"buffer":0,
			"byteLength":4020,
			"byteOffset":36080,
			"target":34963
		}
	],
	"samplers":[
		{
			"magFilter":9729,
			"minFilter":9987
		}
	],
	"buffers":[
		{
			"byteLength":40100,
			"uri":"base.bin"
		}
	]
}
