{
	"asset":{
		"generator":"Khronos glTF Blender I/O v4.0.44",
		"version":"2.0"
	},
	"extensionsUsed":[
		"KHR_materials_transmission",
		"KHR_materials_ior"
	],
	"scene":0,
	"scenes":[
		{
			"name":"Scene",
			"nodes":[
				0,
				1,
				2
			]
		}
	],
	"nodes":[
		{
			"mesh":0,
			"name":"Cylinder",
			"scale":[
				-0.04874532297253609,
				-0.08431009203195572,
				-0.04874532297253609
			]
		},
		{
			"mesh":1,
			"name":"top",
			"scale":[
				-0.04874532297253609,
				-0.08431009203195572,
				-0.04874532297253609
			]
		},
		{
			"mesh":2,
			"name":"light",
			"scale":[
				-0.04874532297253609,
				-0.08431009203195572,
				-0.04874532297253609
			]
		}
	],
	"materials":[
		{
			"doubleSided":true,
			"name":"metal",
			"pbrMetallicRoughness":{
				"baseColorFactor":[
					0,
					0.0005850795423611999,
					0.0256173238158226,
					1
				],
				"metallicFactor":0,
				"roughnessFactor":0.5
			}
		},
		{
			"doubleSided":true,
			"extensions":{
				"KHR_materials_transmission":{
					"transmissionFactor":0.7227272987365723
				},
				"KHR_materials_ior":{
					"ior":1.4500000476837158
				}
			},
			"name":"Material.001",
			"pbrMetallicRoughness":{
				"baseColorFactor":[
					1,
					0.9680516719818115,
					0,
					1
				],
				"metallicFactor":0
			}
		}
	],
	"meshes":[
		{
			"name":"Cylinder.002",
			"primitives":[
				{
					"attributes":{
						"POSITION":0,
						"NORMAL":1,
						"TEXCOORD_0":2
					},
					"indices":3,
					"material":0
				}
			]
		},
		{
			"name":"Cylinder.003",
			"primitives":[
				{
					"attributes":{
						"POSITION":4,
						"NORMAL":5,
						"TEXCOORD_0":6
					},
					"indices":7,
					"material":0
				}
			]
		},
		{
			"name":"Cylinder.004",
			"primitives":[
				{
					"attributes":{
						"POSITION":8,
						"NORMAL":9,
						"TEXCOORD_0":10
					},
					"indices":11,
					"material":1
				}
			]
		}
	],
	"accessors":[
		{
			"bufferView":0,
			"componentType":5126,
			"count":45,
			"max":[
				0.9848077297210693,
				-0.08970344066619873,
				0.9396926164627075
			],
			"min":[
				-0.9848077297210693,
				-12.183562278747559,
				-1
			],
			"type":"VEC3"
		},
		{
			"bufferView":1,
			"componentType":5126,
			"count":45,
			"type":"VEC3"
		},
		{
			"bufferView":2,
			"componentType":5126,
			"count":45,
			"type":"VEC2"
		},
		{
			"bufferView":3,
			"componentType":5123,
			"count":75,
			"type":"SCALAR"
		},
		{
			"bufferView":4,
			"componentType":5126,
			"count":27,
			"max":[
				1.976101040840149,
				-13.818290710449219,
				1.8855736255645752
			],
			"min":[
				-1.976101040840149,
				-14.374971389770508,
				-2.0065855979919434
			],
			"type":"VEC3"
		},
		{
			"bufferView":5,
			"componentType":5126,
			"count":27,
			"type":"VEC3"
		},
		{
			"bufferView":6,
			"componentType":5126,
			"count":27,
			"type":"VEC2"
		},
		{
			"bufferView":7,
			"componentType":5123,
			"count":27,
			"type":"SCALAR"
		},
		{
			"bufferView":8,
			"componentType":5126,
			"count":36,
			"max":[
				1.976101040840149,
				-12.183562278747559,
				1.8855736255645752
			],
			"min":[
				-1.976101040840149,
				-13.818290710449219,
				-2.0065855979919434
			],
			"type":"VEC3"
		},
		{
			"bufferView":9,
			"componentType":5126,
			"count":36,
			"type":"VEC3"
		},
		{
			"bufferView":10,
			"componentType":5126,
			"count":36,
			"type":"VEC2"
		},
		{
			"bufferView":11,
			"componentType":5123,
			"count":54,
			"type":"SCALAR"
		}
	],
	"bufferViews":[
		{
			"buffer":0,
			"byteLength":540,
			"byteOffset":0,
			"target":34962
		},
		{
			"buffer":0,
			"byteLength":540,
			"byteOffset":540,
			"target":34962
		},
		{
			"buffer":0,
			"byteLength":360,
			"byteOffset":1080,
			"target":34962
		},
		{
			"buffer":0,
			"byteLength":150,
			"byteOffset":1440,
			"target":34963
		},
		{
			"buffer":0,
			"byteLength":324,
			"byteOffset":1592,
			"target":34962
		},
		{
			"buffer":0,
			"byteLength":324,
			"byteOffset":1916,
			"target":34962
		},
		{
			"buffer":0,
			"byteLength":216,
			"byteOffset":2240,
			"target":34962
		},
		{
			"buffer":0,
			"byteLength":54,
			"byteOffset":2456,
			"target":34963
		},
		{
			"buffer":0,
			"byteLength":432,
			"byteOffset":2512,
			"target":34962
		},
		{
			"buffer":0,
			"byteLength":432,
			"byteOffset":2944,
			"target":34962
		},
		{
			"buffer":0,
			"byteLength":288,
			"byteOffset":3376,
			"target":34962
		},
		{
			"buffer":0,
			"byteLength":108,
			"byteOffset":3664,
			"target":34963
		}
	],
	"buffers":[
		{
			"byteLength":3772,
			"uri":"lamp.bin"
		}
	]
}
