{
	"asset":{
		"generator":"Khronos glTF Blender I/O v4.0.44",
		"version":"2.0"
	},
	"extensionsUsed":[
		"KHR_materials_sheen"
	],
	"scene":0,
	"scenes":[
		{
			"name":"Scene",
			"nodes":[
				0,
				1,
				2,
				3,
				4,
				5,
				6,
				7,
				8,
				9,
				10,
				11,
				12
			]
		}
	],
	"nodes":[
		{
			"mesh":0,
			"name":"Cube.002",
			"scale":[
				0.2124333381652832,
				0.2124333381652832,
				0.2124333381652832
			],
			"translation":[
				-0.055721625685691833,
				0.21386313438415527,
				0.07503587007522583
			]
		},
		{
			"mesh":1,
			"name":"Cube.003",
			"scale":[
				0.6704114079475403,
				0.2124333381652832,
				0.2124333381652832
			],
			"translation":[
				-0.055721625685691833,
				0.21386313438415527,
				0.07503587007522583
			]
		},
		{
			"mesh":2,
			"name":"Cube.004",
			"rotation":[
				0,
				0.7164235711097717,
				0,
				0.6976655721664429
			],
			"scale":[
				1.0484287738800049,
				0.2124333381652832,
				0.2141730636358261
			],
			"translation":[
				-0.08236877620220184,
				0.21386313438415527,
				-0.9637362360954285
			]
		},
		{
			"mesh":3,
			"name":"NurbsPath",
			"rotation":[
				-0.1559302657842636,
				0.3819830119609833,
				0.1572459489107132,
				0.897244930267334
			],
			"scale":[
				0.38067516684532166,
				0.39119017124176025,
				0.4084072709083557
			],
			"translation":[
				-0.000598907470703125,
				0.48585641384124756,
				0.0013442635536193848
			]
		},
		{
			"mesh":4,
			"name":"NurbsPath.003",
			"rotation":[
				-0.1564532369375229,
				-0.8991702795028687,
				-0.15672555565834045,
				0.37742850184440613
			],
			"scale":[
				0.38067516684532166,
				0.39119017124176025,
				0.40840741991996765
			],
			"translation":[
				-0.10852520167827606,
				0.4836074113845825,
				0.13277018070220947
			]
		},
		{
			"name":"BezierCircle.005",
			"rotation":[
				0,
				-0.7046574950218201,
				0,
				0.7095476984977722
			],
			"scale":[
				0.006848941557109356,
				0.05981646105647087,
				0.006527952384203672
			],
			"translation":[
				-0.08143804967403412,
				0.2931739091873169,
				0.07405638694763184
			]
		},
		{
			"mesh":5,
			"name":"Plane.002",
			"rotation":[
				0,
				-0.8991785645484924,
				0,
				0.4375818967819214
			],
			"scale":[
				0.03821985051035881,
				0.2928388714790344,
				0.10170724242925644
			],
			"translation":[
				-0.14237476885318756,
				0.45393621921539307,
				0.003940701484680176
			]
		},
		{
			"mesh":6,
			"name":"Plane.003",
			"rotation":[
				0,
				-0.42076945304870605,
				0,
				0.9071676135063171
			],
			"scale":[
				0.03821985051035881,
				0.2928388714790344,
				0.10170724242925644
			],
			"translation":[
				-0.15350642800331116,
				0.4523134231567383,
				0.17681413888931274
			]
		},
		{
			"mesh":7,
			"name":"Plane.004",
			"rotation":[
				0,
				0.921434223651886,
				0,
				0.38853442668914795
			],
			"scale":[
				0.03821985051035881,
				0.2928388714790344,
				0.10170724242925644
			],
			"translation":[
				0.033890485763549805,
				0.45501530170440674,
				-0.003546774387359619
			]
		},
		{
			"mesh":8,
			"name":"Plane.005",
			"rotation":[
				0,
				0.4102552533149719,
				0,
				0.9119707345962524
			],
			"scale":[
				0.03821985051035881,
				0.2928388714790344,
				0.10170724242925644
			],
			"translation":[
				0.028424203395843506,
				0.4431178569793701,
				0.16871172189712524
			]
		},
		{
			"mesh":9,
			"name":"Sphere.001",
			"scale":[
				0.03452092781662941,
				0.03452092781662941,
				0.03452092781662941
			],
			"translation":[
				-0.061652615666389465,
				0.492207407951355,
				0.06678527593612671
			]
		},
		{
			"mesh":10,
			"name":"NurbsPath.006",
			"rotation":[
				-0.1603737473487854,
				-0.378722608089447,
				-0.025593969970941544,
				0.9111500382423401
			],
			"scale":[
				0.38067516684532166,
				0.39119017124176025,
				0.40840741991996765
			],
			"translation":[
				0.013441234827041626,
				0.502590537071228,
				0.12839831411838531
			]
		},
		{
			"mesh":11,
			"name":"NurbsPath.007",
			"rotation":[
				-0.09751126170158386,
				0.8529734015464783,
				0.1466132402420044,
				0.49135780334472656
			],
			"scale":[
				0.38067516684532166,
				0.39119017124176025,
				0.40840741991996765
			],
			"translation":[
				-0.10028556734323502,
				0.45420050621032715,
				0.016615398228168488
			]
		}
	],
	"materials":[
		{
			"doubleSided":true,
			"extensions":{
				"KHR_materials_sheen":{
					"sheenColorFactor":[
						1.0,
						0.4121832251548767,
						0.27862855792045593
					],
					"sheenRoughnessFactor":0.5
				}
			},
			"name":"Material.003",
			"pbrMetallicRoughness":{
				"baseColorFactor":[
					0.7999992966651917,
					0.025690576061606407,
					0.0343482531607151,
					1
				],
				"metallicFactor":0,
				"roughnessFactor":0.5
			}
		},
		{
			"doubleSided":true,
			"name":"Material.006",
			"pbrMetallicRoughness":{
				"baseColorFactor":[
					0.002729841973632574,
					0.4392769932746887,
					0.25398755073547363,
					1
				],
				"metallicFactor":0,
				"roughnessFactor":0.5
			}
		},
		{
			"doubleSided":true,
			"emissiveFactor":[
				0.20000004768371582,
				0.12174519818906049,
				0.030475251191912633
			],
			"extensions":{
				"KHR_materials_sheen":{
					"sheenColorFactor":[
						1.0,
						1.0,
						1.0
					],
					"sheenRoughnessFactor":0.5
				}
			},
			"name":"Material.001",
			"pbrMetallicRoughness":{
				"baseColorFactor":[
					0.5901119112968445,
					0.7999992966651917,
					0.03817250579595566,
					1
				],
				"metallicFactor":0.5,
				"roughnessFactor":0.5
			}
		},
		{
			"doubleSided":true,
			"name":"Material.009",
			"pbrMetallicRoughness":{
				"baseColorFactor":[
					0.002729841973632574,
					0.4392769932746887,
					0.25398755073547363,
					1
				],
				"metallicFactor":0,
				"roughnessFactor":0.5
			}
		},
		{
			"doubleSided":true,
			"name":"Material.010",
			"pbrMetallicRoughness":{
				"baseColorFactor":[
					0.002729841973632574,
					0.4392769932746887,
					0.25398755073547363,
					1
				],
				"metallicFactor":0,
				"roughnessFactor":0.5
			}
		}
	],
	"meshes":[
		{
			"name":"Cube.004",
			"primitives":[
				{
					"attributes":{
						"POSITION":0,
						"NORMAL":1,
						"TEXCOORD_0":2
					},
					"indices":3,
					"material":0
				}
			]
		},
		{
			"name":"Cube.009",
			"primitives":[
				{
					"attributes":{
						"POSITION":4,
						"NORMAL":5,
						"TEXCOORD_0":6
					},
					"indices":7,
					"material":1
				}
			]
		},
		{
			"name":"Cube.010",
			"primitives":[
				{
					"attributes":{
						"POSITION":8,
						"NORMAL":9,
						"TEXCOORD_0":10
					},
					"indices":11,
					"material":1
				}
			]
		},
		{
			"name":"NurbsPath.001",
			"primitives":[
				{
					"attributes":{
						"POSITION":12,
						"NORMAL":13,
						"TEXCOORD_0":14
					},
					"indices":15,
					"material":1
				}
			]
		},
		{
			"name":"NurbsPath.004",
			"primitives":[
				{
					"attributes":{
						"POSITION":16,
						"NORMAL":17,
						"TEXCOORD_0":18
					},
					"indices":15,
					"material":1
				}
			]
		},
		{
			"name":"Plane.002",
			"primitives":[
				{
					"attributes":{
						"POSITION":19,
						"NORMAL":20,
						"TEXCOORD_0":21
					},
					"indices":22,
					"material":1
				}
			]
		},
		{
			"name":"Plane.003",
			"primitives":[
				{
					"attributes":{
						"POSITION":23,
						"NORMAL":24,
						"TEXCOORD_0":25
					},
					"indices":22,
					"material":1
				}
			]
		},
		{
			"name":"Plane.004",
			"primitives":[
				{
					"attributes":{
						"POSITION":26,
						"NORMAL":27,
						"TEXCOORD_0":28
					},
					"indices":22,
					"material":1
				}
			]
		},
		{
			"name":"Plane.005",
			"primitives":[
				{
					"attributes":{
						"POSITION":29,
						"NORMAL":30,
						"TEXCOORD_0":31
					},
					"indices":22,
					"material":1
				}
			]
		},
		{
			"name":"Sphere.001",
			"primitives":[
				{
					"attributes":{
						"POSITION":32,
						"NORMAL":33,
						"TEXCOORD_0":34
					},
					"indices":35,
					"material":2
				}
			]
		},
		{
			"name":"NurbsPath.007",
			"primitives":[
				{
					"attributes":{
						"POSITION":36,
						"NORMAL":37,
						"TEXCOORD_0":38
					},
					"indices":15,
					"material":3
				}
			]
		},
		{
			"name":"NurbsPath.008",
			"primitives":[
				{
					"attributes":{
						"POSITION":39,
						"NORMAL":40,
						"TEXCOORD_0":41
					},
					"indices":15,
					"material":4
				}
			]
		}
	],
	"accessors":[
		{
			"bufferView":0,
			"componentType":5126,
			"count":80,
			"max":[
				1.1201813220977783,
				1.1201813220977783,
				1.1201813220977783
			],
			"min":[
				-1.1201813220977783,
				-1,
				-1.1201813220977783
			],
			"type":"VEC3"
		},
		{
			"bufferView":1,
			"componentType":5126,
			"count":80,
			"type":"VEC3"
		},
		{
			"bufferView":2,
			"componentType":5126,
			"count":80,
			"type":"VEC2"
		},
		{
			"bufferView":3,
			"componentType":5123,
			"count":168,
			"type":"SCALAR"
		},
		{
			"bufferView":4,
			"componentType":5126,
			"count":704,
			"max":[
				0.044501397758722305,
				1.1997078657150269,
				1.1989256143569946
			],
			"min":[
				-0.045707833021879196,
				-1.1198946237564087,
				-1.1982570886611938
			],
			"type":"VEC3"
		},
		{
			"bufferView":5,
			"componentType":5126,
			"count":704,
			"type":"VEC3"
		},
		{
			"bufferView":6,
			"componentType":5126,
			"count":704,
			"type":"VEC2"
		},
		{
			"bufferView":7,
			"componentType":5123,
			"count":1056,
			"type":"SCALAR"
		},
		{
			"bufferView":8,
			"componentType":5126,
			"count":704,
			"max":[
				-0.9554510116577148,
				1.199447751045227,
				1.1890625953674316
			],
			"min":[
				-1.0456589460372925,
				-1.1198959350585938,
				-1.2076514959335327
			],
			"type":"VEC3"
		},
		{
			"bufferView":9,
			"componentType":5126,
			"count":704,
			"type":"VEC3"
		},
		{
			"bufferView":10,
			"componentType":5126,
			"count":704,
			"type":"VEC2"
		},
		{
			"bufferView":11,
			"componentType":5123,
			"count":1056,
			"type":"SCALAR"
		},
		{
			"bufferView":12,
			"componentType":5126,
			"count":240,
			"max":[
				0.24347423017024994,
				0.2665262818336487,
				0.11528252810239792
			],
			"min":[
				-0.1730455458164215,
				-0.051882460713386536,
				-0.032240428030490875
			],
			"type":"VEC3"
		},
		{
			"bufferView":13,
			"componentType":5126,
			"count":240,
			"type":"VEC3"
		},
		{
			"bufferView":14,
			"componentType":5126,
			"count":240,
			"type":"VEC2"
		},
		{
			"bufferView":15,
			"componentType":5123,
			"count":1128,
			"type":"SCALAR"
		},
		{
			"bufferView":16,
			"componentType":5126,
			"count":240,
			"max":[
				0.24347423017024994,
				0.2665262818336487,
				0.11528252810239792
			],
			"min":[
				-0.1730455458164215,
				-0.051882460713386536,
				-0.032240428030490875
			],
			"type":"VEC3"
		},
		{
			"bufferView":17,
			"componentType":5126,
			"count":240,
			"type":"VEC3"
		},
		{
			"bufferView":18,
			"componentType":5126,
			"count":240,
			"type":"VEC2"
		},
		{
			"bufferView":19,
			"componentType":5126,
			"count":103,
			"max":[
				1,
				0.046784594655036926,
				1
			],
			"min":[
				-1,
				0,
				-1
			],
			"type":"VEC3"
		},
		{
			"bufferView":20,
			"componentType":5126,
			"count":103,
			"type":"VEC3"
		},
		{
			"bufferView":21,
			"componentType":5126,
			"count":103,
			"type":"VEC2"
		},
		{
			"bufferView":22,
			"componentType":5123,
			"count":666,
			"type":"SCALAR"
		},
		{
			"bufferView":23,
			"componentType":5126,
			"count":103,
			"max":[
				1,
				0.046784594655036926,
				1
			],
			"min":[
				-1,
				0,
				-1
			],
			"type":"VEC3"
		},
		{
			"bufferView":24,
			"componentType":5126,
			"count":103,
			"type":"VEC3"
		},
		{
			"bufferView":25,
			"componentType":5126,
			"count":103,
			"type":"VEC2"
		},
		{
			"bufferView":26,
			"componentType":5126,
			"count":103,
			"max":[
				1,
				0.046784594655036926,
				1
			],
			"min":[
				-1,
				0,
				-1
			],
			"type":"VEC3"
		},
		{
			"bufferView":27,
			"componentType":5126,
			"count":103,
			"type":"VEC3"
		},
		{
			"bufferView":28,
			"componentType":5126,
			"count":103,
			"type":"VEC2"
		},
		{
			"bufferView":29,
			"componentType":5126,
			"count":103,
			"max":[
				1,
				0.046784594655036926,
				1
			],
			"min":[
				-1,
				0,
				-1
			],
			"type":"VEC3"
		},
		{
			"bufferView":30,
			"componentType":5126,
			"count":103,
			"type":"VEC3"
		},
		{
			"bufferView":31,
			"componentType":5126,
			"count":103,
			"type":"VEC2"
		},
		{
			"bufferView":32,
			"componentType":5126,
			"count":559,
			"max":[
				0.9999997019767761,
				1,
				0.9999993443489075
			],
			"min":[
				-0.9999990463256836,
				-1,
				-1
			],
			"type":"VEC3"
		},
		{
			"bufferView":33,
			"componentType":5126,
			"count":559,
			"type":"VEC3"
		},
		{
			"bufferView":34,
			"componentType":5126,
			"count":559,
			"type":"VEC2"
		},
		{
			"bufferView":35,
			"componentType":5123,
			"count":2880,
			"type":"SCALAR"
		},
		{
			"bufferView":36,
			"componentType":5126,
			"count":240,
			"max":[
				0.24347423017024994,
				0.2665262818336487,
				0.11528252810239792
			],
			"min":[
				-0.1730455458164215,
				-0.051882460713386536,
				-0.032240428030490875
			],
			"type":"VEC3"
		},
		{
			"bufferView":37,
			"componentType":5126,
			"count":240,
			"type":"VEC3"
		},
		{
			"bufferView":38,
			"componentType":5126,
			"count":240,
			"type":"VEC2"
		},
		{
			"bufferView":39,
			"componentType":5126,
			"count":240,
			"max":[
				0.24347423017024994,
				0.2665262818336487,
				0.11528252810239792
			],
			"min":[
				-0.1730455458164215,
				-0.051882460713386536,
				-0.032240428030490875
			],
			"type":"VEC3"
		},
		{
			"bufferView":40,
			"componentType":5126,
			"count":240,
			"type":"VEC3"
		},
		{
			"bufferView":41,
			"componentType":5126,
			"count":240,
			"type":"VEC2"
		}
	],
	"bufferViews":[
		{
			"buffer":0,
			"byteLength":960,
			"byteOffset":0,
			"target":34962
		},
		{
			"buffer":0,
			"byteLength":960,
			"byteOffset":960,
			"target":34962
		},
		{
			"buffer":0,
			"byteLength":640,
			"byteOffset":1920,
			"target":34962
		},
		{
			"buffer":0,
			"byteLength":336,
			"byteOffset":2560,
			"target":34963
		},
		{
			"buffer":0,
			"byteLength":8448,
			"byteOffset":2896,
			"target":34962
		},
		{
			"buffer":0,
			"byteLength":8448,
			"byteOffset":11344,
			"target":34962
		},
		{
			"buffer":0,
			"byteLength":5632,
			"byteOffset":19792,
			"target":34962
		},
		{
			"buffer":0,
			"byteLength":2112,
			"byteOffset":25424,
			"target":34963
		},
		{
			"buffer":0,
			"byteLength":8448,
			"byteOffset":27536,
			"target":34962
		},
		{
			"buffer":0,
			"byteLength":8448,
			"byteOffset":35984,
			"target":34962
		},
		{
			"buffer":0,
			"byteLength":5632,
			"byteOffset":44432,
			"target":34962
		},
		{
			"buffer":0,
			"byteLength":2112,
			"byteOffset":50064,
			"target":34963
		},
		{
			"buffer":0,
			"byteLength":2880,
			"byteOffset":52176,
			"target":34962
		},
		{
			"buffer":0,
			"byteLength":2880,
			"byteOffset":55056,
			"target":34962
		},
		{
			"buffer":0,
			"byteLength":1920,
			"byteOffset":57936,
			"target":34962
		},
		{
			"buffer":0,
			"byteLength":2256,
			"byteOffset":59856,
			"target":34963
		},
		{
			"buffer":0,
			"byteLength":2880,
			"byteOffset":62112,
			"target":34962
		},
		{
			"buffer":0,
			"byteLength":2880,
			"byteOffset":64992,
			"target":34962
		},
		{
			"buffer":0,
			"byteLength":1920,
			"byteOffset":67872,
			"target":34962
		},
		{
			"buffer":0,
			"byteLength":1236,
			"byteOffset":69792,
			"target":34962
		},
		{
			"buffer":0,
			"byteLength":1236,
			"byteOffset":71028,
			"target":34962
		},
		{
			"buffer":0,
			"byteLength":824,
			"byteOffset":72264,
			"target":34962
		},
		{
			"buffer":0,
			"byteLength":1332,
			"byteOffset":73088,
			"target":34963
		},
		{
			"buffer":0,
			"byteLength":1236,
			"byteOffset":74420,
			"target":34962
		},
		{
			"buffer":0,
			"byteLength":1236,
			"byteOffset":75656,
			"target":34962
		},
		{
			"buffer":0,
			"byteLength":824,
			"byteOffset":76892,
			"target":34962
		},
		{
			"buffer":0,
			"byteLength":1236,
			"byteOffset":77716,
			"target":34962
		},
		{
			"buffer":0,
			"byteLength":1236,
			"byteOffset":78952,
			"target":34962
		},
		{
			"buffer":0,
			"byteLength":824,
			"byteOffset":80188,
			"target":34962
		},
		{
			"buffer":0,
			"byteLength":1236,
			"byteOffset":81012,
			"target":34962
		},
		{
			"buffer":0,
			"byteLength":1236,
			"byteOffset":82248,
			"target":34962
		},
		{
			"buffer":0,
			"byteLength":824,
			"byteOffset":83484,
			"target":34962
		},
		{
			"buffer":0,
			"byteLength":6708,
			"byteOffset":84308,
			"target":34962
		},
		{
			"buffer":0,
			"byteLength":6708,
			"byteOffset":91016,
			"target":34962
		},
		{
			"buffer":0,
			"byteLength":4472,
			"byteOffset":97724,
			"target":34962
		},
		{
			"buffer":0,
			"byteLength":5760,
			"byteOffset":102196,
			"target":34963
		},
		{
			"buffer":0,
			"byteLength":2880,
			"byteOffset":107956,
			"target":34962
		},
		{
			"buffer":0,
			"byteLength":2880,
			"byteOffset":110836,
			"target":34962
		},
		{
			"buffer":0,
			"byteLength":1920,
			"byteOffset":113716,
			"target":34962
		},
		{
			"buffer":0,
			"byteLength":2880,
			"byteOffset":115636,
			"target":34962
		},
		{
			"buffer":0,
			"byteLength":2880,
			"byteOffset":118516,
			"target":34962
		},
		{
			"buffer":0,
			"byteLength":1920,
			"byteOffset":121396,
			"target":34962
		}
	],
	"buffers":[
		{
			"byteLength":123316,
			"uri":"presents.bin"
		}
	]
}
