{
	"asset":{
		"generator":"Khronos glTF Blender I/O v4.0.44",
		"version":"2.0"
	},
	"extensionsUsed":[
		"KHR_materials_transmission",
		"KHR_materials_sheen",
		"KHR_materials_ior",
		"KHR_materials_clearcoat"
	],
	"scene":0,
	"scenes":[
		{
			"name":"Scene",
			"nodes":[
				0,
				1,
				2,
				3,
				4,
				5,
				6,
				7,
				8,
				9,
				10
			]
		}
	],
	"nodes":[
		{
			"mesh":0,
			"name":"Circle",
			"scale":[
				0.3686597943305969,
				0.3686597943305969,
				0.3686597943305969
			],
			"translation":[
				8.480821270495653e-05,
				0.8239437341690063,
				-0.011002257466316223
			]
		},
		{
			"mesh":1,
			"name":"Circle.001",
			"scale":[
				0.3686597943305969,
				0.3686597943305969,
				0.3686597943305969
			],
			"translation":[
				8.480821270495653e-05,
				0.8239437341690063,
				-0.011002257466316223
			]
		},
		{
			"mesh":2,
			"name":"Cube",
			"rotation":[
				0.1800539493560791,
				0,
				0,
				0.9836568236351013
			],
			"scale":[
				0.04053222015500069,
				0.04053222015500069,
				0.04053222015500069
			],
			"translation":[
				-0.08415411412715912,
				0.6919495463371277,
				-0.22431793808937073
			]
		},
		{
			"mesh":3,
			"name":"Cube.001",
			"rotation":[
				0.1800539493560791,
				0,
				0,
				0.9836568236351013
			],
			"scale":[
				0.04023013263940811,
				0.04023013263940811,
				0.04023013263940811
			],
			"translation":[
				0.08415407687425613,
				0.6919495463371277,
				-0.2243179827928543
			]
		},
		{
			"mesh":4,
			"name":"Cube.002",
			"scale":[
				0.052628252655267715,
				0.02538016438484192,
				0.021728191524744034
			],
			"translation":[
				-0.0046682897955179214,
				0.6469694375991821,
				-0.29450881481170654
			]
		},
		{
			"mesh":5,
			"name":"Cube.003",
			"rotation":[
				0.04549812898039818,
				0,
				0,
				0.9989644289016724
			],
			"scale":[
				0.04520779475569725,
				0.04520779475569725,
				0.04520779475569725
			],
			"translation":[
				-0.004445000551640987,
				0.576166570186615,
				-0.3169613480567932
			]
		},
		{
			"mesh":6,
			"name":"NurbsPath",
			"scale":[
				0.3800191879272461,
				0.3800191879272461,
				0.3800191879272461
			],
			"translation":[
				0.011388431303203106,
				0.9430254697799683,
				0.07650015503168106
			]
		},
		{
			"mesh":7,
			"name":"Plane.002",
			"rotation":[
				0,
				0,
				-0.699889063835144,
				0.7142515182495117
			],
			"scale":[
				0.0637248232960701,
				0.0637248232960701,
				0.0637248232960701
			],
			"translation":[
				0.30251291394233704,
				0.4580225944519043,
				0.15639998018741608
			]
		},
		{
			"mesh":8,
			"name":"Plane.003",
			"rotation":[
				-0.6997935175895691,
				0.7141540050506592,
				-0.01156663242727518,
				0.011803990229964256
			],
			"scale":[
				0.0637248232960701,
				0.0637248307466507,
				0.0637248307466507
			],
			"translation":[
				-0.2987031042575836,
				0.4587714672088623,
				-0.1662571281194687
			]
		},
		{
			"mesh":9,
			"name":"Sphere",
			"scale":[
				0.3800191879272461,
				0.3800191879272461,
				0.3800191879272461
			],
			"translation":[
				-5.9727233747253194e-05,
				0.49587810039520264,
				0.0026039406657218933
			]
		},
		{
			"mesh":10,
			"name":"Sphere.001",
			"scale":[
				-0.033224135637283325,
				-0.033224135637283325,
				-0.033224135637283325
			],
			"translation":[
				0.014157205820083618,
				1.008556604385376,
				0.14470677077770233
			]
		}
	],
	"materials":[
		{
			"doubleSided":true,
			"name":"Material.006",
			"pbrMetallicRoughness":{
				"baseColorFactor":[
					0.800000011920929,
					0.800000011920929,
					0.800000011920929,
					1
				],
				"metallicFactor":0,
				"roughnessFactor":0.5
			}
		},
		{
			"doubleSided":true,
			"name":"Material.007",
			"pbrMetallicRoughness":{
				"baseColorFactor":[
					0.7999992966651917,
					0.012273506261408329,
					0,
					1
				],
				"metallicFactor":0,
				"roughnessFactor":0.5
			}
		},
		{
			"doubleSided":true,
			"extensions":{
				"KHR_materials_transmission":{
					"transmissionFactor":0.14960630238056183
				},
				"KHR_materials_sheen":{
					"sheenColorFactor":[
						1.0,
						1.0,
						1.0
					],
					"sheenRoughnessFactor":0.5
				},
				"KHR_materials_ior":{
					"ior":1.4500000476837158
				}
			},
			"name":"Material.003",
			"pbrMetallicRoughness":{
				"baseColorFactor":[
					0.03275010362267494,
					0.03275010362267494,
					0.03275010362267494,
					1
				],
				"metallicFactor":0,
				"roughnessFactor":0.5
			}
		},
		{
			"doubleSided":true,
			"extensions":{
				"KHR_materials_clearcoat":{
					"clearcoatFactor":0.29133859276771545,
					"clearcoatRoughnessFactor":0.029999999329447746
				}
			},
			"name":"Material.004",
			"pbrMetallicRoughness":{
				"baseColorFactor":[
					0.7999992966651917,
					0.18166856467723846,
					0.31070414185523987,
					1
				],
				"metallicFactor":0,
				"roughnessFactor":0.5708661079406738
			}
		},
		{
			"doubleSided":true,
			"name":"Material.002",
			"pbrMetallicRoughness":{
				"baseColorTexture":{
					"index":0
				},
				"metallicFactor":0,
				"roughnessFactor":0.5
			}
		}
	],
	"meshes":[
		{
			"name":"Circle",
			"primitives":[
				{
					"attributes":{
						"POSITION":0,
						"NORMAL":1,
						"TEXCOORD_0":2
					},
					"indices":3,
					"material":0
				},
				{
					"attributes":{
						"POSITION":4,
						"NORMAL":5,
						"TEXCOORD_0":6
					},
					"indices":7,
					"material":1
				}
			]
		},
		{
			"name":"Circle.001",
			"primitives":[
				{
					"attributes":{
						"POSITION":8,
						"NORMAL":9,
						"TEXCOORD_0":10
					},
					"indices":11,
					"material":0
				},
				{
					"attributes":{
						"POSITION":12,
						"NORMAL":13,
						"TEXCOORD_0":14
					},
					"indices":15,
					"material":1
				}
			]
		},
		{
			"name":"Cube",
			"primitives":[
				{
					"attributes":{
						"POSITION":16,
						"NORMAL":17,
						"TEXCOORD_0":18
					},
					"indices":19,
					"material":2
				}
			]
		},
		{
			"name":"Cube.002",
			"primitives":[
				{
					"attributes":{
						"POSITION":20,
						"NORMAL":21,
						"TEXCOORD_0":22
					},
					"indices":19,
					"material":2
				}
			]
		},
		{
			"name":"Cube.003",
			"primitives":[
				{
					"attributes":{
						"POSITION":23,
						"NORMAL":24,
						"TEXCOORD_0":25
					},
					"indices":19,
					"material":2
				}
			]
		},
		{
			"name":"Cube.004",
			"primitives":[
				{
					"attributes":{
						"POSITION":26,
						"NORMAL":27,
						"TEXCOORD_0":28
					},
					"indices":29,
					"material":3
				}
			]
		},
		{
			"name":"NurbsPath",
			"primitives":[
				{
					"attributes":{
						"POSITION":30,
						"NORMAL":31,
						"TEXCOORD_0":32
					},
					"indices":33,
					"material":2
				}
			]
		},
		{
			"name":"Plane.003",
			"primitives":[
				{
					"attributes":{
						"POSITION":34,
						"NORMAL":35,
						"TEXCOORD_0":36
					},
					"indices":37,
					"material":2
				}
			]
		},
		{
			"name":"Plane.004",
			"primitives":[
				{
					"attributes":{
						"POSITION":38,
						"NORMAL":39,
						"TEXCOORD_0":40
					},
					"indices":37,
					"material":2
				}
			]
		},
		{
			"name":"Sphere",
			"primitives":[
				{
					"attributes":{
						"COLOR_0":41,
						"POSITION":42,
						"NORMAL":43,
						"TEXCOORD_0":44
					},
					"indices":45,
					"material":4
				}
			]
		},
		{
			"name":"Sphere.001",
			"primitives":[
				{
					"attributes":{
						"POSITION":46,
						"NORMAL":47,
						"TEXCOORD_0":48
					},
					"indices":49,
					"material":0
				}
			]
		}
	],
	"textures":[
		{
			"sampler":0,
			"source":0
		}
	],
	"images":[
		{
			"mimeType":"image/png",
			"name":"spotty",
			"uri":"spotty.png"
		}
	],
	"accessors":[
		{
			"bufferView":0,
			"componentType":5126,
			"count":1858,
			"max":[
				0.6069443225860596,
				0.5254570245742798,
				0.6579100489616394
			],
			"min":[
				-0.6108587980270386,
				-0.240875706076622,
				-0.5598930716514587
			],
			"type":"VEC3"
		},
		{
			"bufferView":1,
			"componentType":5126,
			"count":1858,
			"type":"VEC3"
		},
		{
			"bufferView":2,
			"componentType":5126,
			"count":1858,
			"type":"VEC2"
		},
		{
			"bufferView":3,
			"componentType":5123,
			"count":9456,
			"type":"SCALAR"
		},
		{
			"bufferView":4,
			"componentType":5126,
			"count":1304,
			"max":[
				0.517279326915741,
				0.5284194946289062,
				0.5729185938835144
			],
			"min":[
				-0.5250265002250671,
				-0.1039186343550682,
				-0.46938732266426086
			],
			"type":"VEC3"
		},
		{
			"bufferView":5,
			"componentType":5126,
			"count":1304,
			"type":"VEC3"
		},
		{
			"bufferView":6,
			"componentType":5126,
			"count":1304,
			"type":"VEC2"
		},
		{
			"bufferView":7,
			"componentType":5123,
			"count":5880,
			"type":"SCALAR"
		},
		{
			"bufferView":8,
			"componentType":5126,
			"count":107,
			"max":[
				0.055991675704717636,
				0.527377724647522,
				0.413922518491745
			],
			"min":[
				-0.03309005871415138,
				0.48657867312431335,
				0.35670024156570435
			],
			"type":"VEC3"
		},
		{
			"bufferView":9,
			"componentType":5126,
			"count":107,
			"type":"VEC3"
		},
		{
			"bufferView":10,
			"componentType":5126,
			"count":107,
			"type":"VEC2"
		},
		{
			"bufferView":11,
			"componentType":5123,
			"count":222,
			"type":"SCALAR"
		},
		{
			"bufferView":12,
			"componentType":5126,
			"count":1848,
			"max":[
				0.17905589938163757,
				0.5362887978553772,
				0.4242812991142273
			],
			"min":[
				-0.22903189063072205,
				0.255745530128479,
				-0.055337291210889816
			],
			"type":"VEC3"
		},
		{
			"bufferView":13,
			"componentType":5126,
			"count":1848,
			"type":"VEC3"
		},
		{
			"bufferView":14,
			"componentType":5126,
			"count":1848,
			"type":"VEC2"
		},
		{
			"bufferView":15,
			"componentType":5123,
			"count":9834,
			"type":"SCALAR"
		},
		{
			"bufferView":16,
			"componentType":5126,
			"count":441,
			"max":[
				0.4140765368938446,
				0.8395061492919922,
				0.3264125883579254
			],
			"min":[
				-0.4140784740447998,
				-0.8395061492919922,
				-0.32643356919288635
			],
			"type":"VEC3"
		},
		{
			"bufferView":17,
			"componentType":5126,
			"count":441,
			"type":"VEC3"
		},
		{
			"bufferView":18,
			"componentType":5126,
			"count":441,
			"type":"VEC2"
		},
		{
			"bufferView":19,
			"componentType":5123,
			"count":2304,
			"type":"SCALAR"
		},
		{
			"bufferView":20,
			"componentType":5126,
			"count":441,
			"max":[
				0.4140765368938446,
				0.8395061492919922,
				0.3264125883579254
			],
			"min":[
				-0.4140784740447998,
				-0.8395061492919922,
				-0.32643356919288635
			],
			"type":"VEC3"
		},
		{
			"bufferView":21,
			"componentType":5126,
			"count":441,
			"type":"VEC3"
		},
		{
			"bufferView":22,
			"componentType":5126,
			"count":441,
			"type":"VEC2"
		},
		{
			"bufferView":23,
			"componentType":5126,
			"count":441,
			"max":[
				0.8395062685012817,
				0.8395062685012817,
				0.8395062685012817
			],
			"min":[
				-0.8395062685012817,
				-0.8395062685012817,
				-0.8395062685012817
			],
			"type":"VEC3"
		},
		{
			"bufferView":24,
			"componentType":5126,
			"count":441,
			"type":"VEC3"
		},
		{
			"bufferView":25,
			"componentType":5126,
			"count":441,
			"type":"VEC2"
		},
		{
			"bufferView":26,
			"componentType":5126,
			"count":441,
			"max":[
				0.4140765368938446,
				0.8395061492919922,
				0.3264125883579254
			],
			"min":[
				-0.4140784740447998,
				-0.8395061492919922,
				-0.32643356919288635
			],
			"type":"VEC3"
		},
		{
			"bufferView":27,
			"componentType":5126,
			"count":441,
			"type":"VEC3"
		},
		{
			"bufferView":28,
			"componentType":5126,
			"count":441,
			"type":"VEC2"
		},
		{
			"bufferView":29,
			"componentType":5123,
			"count":2304,
			"type":"SCALAR"
		},
		{
			"bufferView":30,
			"componentType":5126,
			"count":3792,
			"max":[
				0.08698831498622894,
				-0.8128026127815247,
				-0.9611124396324158
			],
			"min":[
				-0.1928703486919403,
				-0.9215177893638611,
				-1.0609608888626099
			],
			"type":"VEC3"
		},
		{
			"bufferView":31,
			"componentType":5126,
			"count":3792,
			"type":"VEC3"
		},
		{
			"bufferView":32,
			"componentType":5126,
			"count":3792,
			"type":"VEC2"
		},
		{
			"bufferView":33,
			"componentType":5123,
			"count":21000,
			"type":"SCALAR"
		},
		{
			"bufferView":34,
			"componentType":5126,
			"count":1122,
			"max":[
				-1.598210096359253,
				-0.2035919576883316,
				-1.4784154891967773
			],
			"min":[
				-4.832174777984619,
				-1.813706398010254,
				-3.691969871520996
			],
			"type":"VEC3"
		},
		{
			"bufferView":35,
			"componentType":5126,
			"count":1122,
			"type":"VEC3"
		},
		{
			"bufferView":36,
			"componentType":5126,
			"count":1122,
			"type":"VEC2"
		},
		{
			"bufferView":37,
			"componentType":5123,
			"count":6720,
			"type":"SCALAR"
		},
		{
			"bufferView":38,
			"componentType":5126,
			"count":1122,
			"max":[
				-1.598210096359253,
				-0.2035919576883316,
				-1.4784154891967773
			],
			"min":[
				-4.832174777984619,
				-1.813706398010254,
				-3.691969871520996
			],
			"type":"VEC3"
		},
		{
			"bufferView":39,
			"componentType":5126,
			"count":1122,
			"type":"VEC3"
		},
		{
			"bufferView":40,
			"componentType":5126,
			"count":1122,
			"type":"VEC2"
		},
		{
			"bufferView":41,
			"componentType":5123,
			"count":3353,
			"normalized":true,
			"type":"VEC4"
		},
		{
			"bufferView":42,
			"componentType":5126,
			"count":3353,
			"max":[
				1.057584285736084,
				0.9013532996177673,
				1.0753810405731201
			],
			"min":[
				-1.0575380325317383,
				-1.5765594244003296,
				-0.8569905757904053
			],
			"type":"VEC3"
		},
		{
			"bufferView":43,
			"componentType":5126,
			"count":3353,
			"type":"VEC3"
		},
		{
			"bufferView":44,
			"componentType":5126,
			"count":3353,
			"type":"VEC2"
		},
		{
			"bufferView":45,
			"componentType":5123,
			"count":18495,
			"type":"SCALAR"
		},
		{
			"bufferView":46,
			"componentType":5126,
			"count":559,
			"max":[
				0.9999997019767761,
				1,
				0.9999993443489075
			],
			"min":[
				-0.9999990463256836,
				-1,
				-1
			],
			"type":"VEC3"
		},
		{
			"bufferView":47,
			"componentType":5126,
			"count":559,
			"type":"VEC3"
		},
		{
			"bufferView":48,
			"componentType":5126,
			"count":559,
			"type":"VEC2"
		},
		{
			"bufferView":49,
			"componentType":5123,
			"count":2880,
			"type":"SCALAR"
		}
	],
	"bufferViews":[
		{
			"buffer":0,
			"byteLength":22296,
			"byteOffset":0,
			"target":34962
		},
		{
			"buffer":0,
			"byteLength":22296,
			"byteOffset":22296,
			"target":34962
		},
		{
			"buffer":0,
			"byteLength":14864,
			"byteOffset":44592,
			"target":34962
		},
		{
			"buffer":0,
			"byteLength":18912,
			"byteOffset":59456,
			"target":34963
		},
		{
			"buffer":0,
			"byteLength":15648,
			"byteOffset":78368,
			"target":34962
		},
		{
			"buffer":0,
			"byteLength":15648,
			"byteOffset":94016,
			"target":34962
		},
		{
			"buffer":0,
			"byteLength":10432,
			"byteOffset":109664,
			"target":34962
		},
		{
			"buffer":0,
			"byteLength":11760,
			"byteOffset":120096,
			"target":34963
		},
		{
			"buffer":0,
			"byteLength":1284,
			"byteOffset":131856,
			"target":34962
		},
		{
			"buffer":0,
			"byteLength":1284,
			"byteOffset":133140,
			"target":34962
		},
		{
			"buffer":0,
			"byteLength":856,
			"byteOffset":134424,
			"target":34962
		},
		{
			"buffer":0,
			"byteLength":444,
			"byteOffset":135280,
			"target":34963
		},
		{
			"buffer":0,
			"byteLength":22176,
			"byteOffset":135724,
			"target":34962
		},
		{
			"buffer":0,
			"byteLength":22176,
			"byteOffset":157900,
			"target":34962
		},
		{
			"buffer":0,
			"byteLength":14784,
			"byteOffset":180076,
			"target":34962
		},
		{
			"buffer":0,
			"byteLength":19668,
			"byteOffset":194860,
			"target":34963
		},
		{
			"buffer":0,
			"byteLength":5292,
			"byteOffset":214528,
			"target":34962
		},
		{
			"buffer":0,
			"byteLength":5292,
			"byteOffset":219820,
			"target":34962
		},
		{
			"buffer":0,
			"byteLength":3528,
			"byteOffset":225112,
			"target":34962
		},
		{
			"buffer":0,
			"byteLength":4608,
			"byteOffset":228640,
			"target":34963
		},
		{
			"buffer":0,
			"byteLength":5292,
			"byteOffset":233248,
			"target":34962
		},
		{
			"buffer":0,
			"byteLength":5292,
			"byteOffset":238540,
			"target":34962
		},
		{
			"buffer":0,
			"byteLength":3528,
			"byteOffset":243832,
			"target":34962
		},
		{
			"buffer":0,
			"byteLength":5292,
			"byteOffset":247360,
			"target":34962
		},
		{
			"buffer":0,
			"byteLength":5292,
			"byteOffset":252652,
			"target":34962
		},
		{
			"buffer":0,
			"byteLength":3528,
			"byteOffset":257944,
			"target":34962
		},
		{
			"buffer":0,
			"byteLength":5292,
			"byteOffset":261472,
			"target":34962
		},
		{
			"buffer":0,
			"byteLength":5292,
			"byteOffset":266764,
			"target":34962
		},
		{
			"buffer":0,
			"byteLength":3528,
			"byteOffset":272056,
			"target":34962
		},
		{
			"buffer":0,
			"byteLength":4608,
			"byteOffset":275584,
			"target":34963
		},
		{
			"buffer":0,
			"byteLength":45504,
			"byteOffset":280192,
			"target":34962
		},
		{
			"buffer":0,
			"byteLength":45504,
			"byteOffset":325696,
			"target":34962
		},
		{
			"buffer":0,
			"byteLength":30336,
			"byteOffset":371200,
			"target":34962
		},
		{
			"buffer":0,
			"byteLength":42000,
			"byteOffset":401536,
			"target":34963
		},
		{
			"buffer":0,
			"byteLength":13464,
			"byteOffset":443536,
			"target":34962
		},
		{
			"buffer":0,
			"byteLength":13464,
			"byteOffset":457000,
			"target":34962
		},
		{
			"buffer":0,
			"byteLength":8976,
			"byteOffset":470464,
			"target":34962
		},
		{
			"buffer":0,
			"byteLength":13440,
			"byteOffset":479440,
			"target":34963
		},
		{
			"buffer":0,
			"byteLength":13464,
			"byteOffset":492880,
			"target":34962
		},
		{
			"buffer":0,
			"byteLength":13464,
			"byteOffset":506344,
			"target":34962
		},
		{
			"buffer":0,
			"byteLength":8976,
			"byteOffset":519808,
			"target":34962
		},
		{
			"buffer":0,
			"byteLength":26824,
			"byteOffset":528784,
			"target":34962
		},
		{
			"buffer":0,
			"byteLength":40236,
			"byteOffset":555608,
			"target":34962
		},
		{
			"buffer":0,
			"byteLength":40236,
			"byteOffset":595844,
			"target":34962
		},
		{
			"buffer":0,
			"byteLength":26824,
			"byteOffset":636080,
			"target":34962
		},
		{
			"buffer":0,
			"byteLength":36990,
			"byteOffset":662904,
			"target":34963
		},
		{
			"buffer":0,
			"byteLength":6708,
			"byteOffset":699896,
			"target":34962
		},
		{
			"buffer":0,
			"byteLength":6708,
			"byteOffset":706604,
			"target":34962
		},
		{
			"buffer":0,
			"byteLength":4472,
			"byteOffset":713312,
			"target":34962
		},
		{
			"buffer":0,
			"byteLength":5760,
			"byteOffset":717784,
			"target":34963
		}
	],
	"samplers":[
		{
			"magFilter":9728,
			"minFilter":9984
		}
	],
	"buffers":[
		{
			"byteLength":723544,
			"uri":"spotty.bin"
		}
	]
}
