{
	"asset":{
		"generator":"Khronos glTF Blender I/O v4.0.44",
		"version":"2.0"
	},
	"scene":0,
	"scenes":[
		{
			"name":"Scene",
			"nodes":[
				0,
				1,
				2
			]
		}
	],
	"nodes":[
		{
			"mesh":0,
			"name":"Cube"
		},
		{
			"mesh":1,
			"name":"WindowFrame",
			"scale":[
				1.0044656991958618,
				1.0044656991958618,
				1.0044656991958618
			]
		},
		{
			"mesh":2,
			"name":"WindowPane",
			"scale":[
				1.0044656991958618,
				1.0044656991958618,
				1.0044656991958618
			]
		}
	],
	"materials":[
		{
			"doubleSided":true,
			"name":"WindowFrame",
			"pbrMetallicRoughness":{
				"baseColorFactor":[
					0.800000011920929,
					0.800000011920929,
					0.800000011920929,
					1
				],
				"metallicFactor":0,
				"roughnessFactor":0.5
			}
		},
		{
			"doubleSided":true,
			"name":"Window Frame",
			"pbrMetallicRoughness":{
				"baseColorFactor":[
					0.24437783658504486,
					0.060594454407691956,
					0.017474601045250893,
					1
				],
				"metallicFactor":0,
				"roughnessFactor":0.5
			}
		},
		{
			"doubleSided":true,
			"name":"Material.001",
			"pbrMetallicRoughness":{
				"baseColorFactor":[
					0.9596595764160156,
					0.6455230712890625,
					0.15684141218662262,
					1
				],
				"metallicFactor":0,
				"roughnessFactor":0.5
			}
		}
	],
	"meshes":[
		{
			"name":"Cube",
			"primitives":[
				{
					"attributes":{
						"POSITION":0,
						"NORMAL":1,
						"TEXCOORD_0":2
					},
					"indices":3,
					"material":0
				}
			]
		},
		{
			"name":"Cube.002",
			"primitives":[
				{
					"attributes":{
						"POSITION":4,
						"NORMAL":5,
						"TEXCOORD_0":6
					},
					"indices":7,
					"material":1
				}
			]
		},
		{
			"name":"Cube.003",
			"primitives":[
				{
					"attributes":{
						"POSITION":8,
						"NORMAL":9,
						"TEXCOORD_0":10
					},
					"indices":11,
					"material":2
				}
			]
		}
	],
	"accessors":[
		{
			"bufferView":0,
			"componentType":5126,
			"count":20,
			"max":[
				1,
				1,
				1
			],
			"min":[
				-1,
				-1,
				-1
			],
			"type":"VEC3"
		},
		{
			"bufferView":1,
			"componentType":5126,
			"count":20,
			"type":"VEC3"
		},
		{
			"bufferView":2,
			"componentType":5126,
			"count":20,
			"type":"VEC2"
		},
		{
			"bufferView":3,
			"componentType":5123,
			"count":42,
			"type":"SCALAR"
		},
		{
			"bufferView":4,
			"componentType":5126,
			"count":176,
			"max":[
				0.9775435328483582,
				0.8037579655647278,
				0.6223149299621582
			],
			"min":[
				0.8879044651985168,
				-0.469001829624176,
				-0.6504448652267456
			],
			"type":"VEC3"
		},
		{
			"bufferView":5,
			"componentType":5126,
			"count":176,
			"type":"VEC3"
		},
		{
			"bufferView":6,
			"componentType":5126,
			"count":176,
			"type":"VEC2"
		},
		{
			"bufferView":7,
			"componentType":5123,
			"count":366,
			"type":"SCALAR"
		},
		{
			"bufferView":8,
			"componentType":5126,
			"count":16,
			"max":[
				0.8879044651985168,
				0.6529311537742615,
				0.4714881181716919
			],
			"min":[
				0.8879044651985168,
				-0.3181750178337097,
				-0.4996180534362793
			],
			"type":"VEC3"
		},
		{
			"bufferView":9,
			"componentType":5126,
			"count":16,
			"type":"VEC3"
		},
		{
			"bufferView":10,
			"componentType":5126,
			"count":16,
			"type":"VEC2"
		},
		{
			"bufferView":11,
			"componentType":5123,
			"count":24,
			"type":"SCALAR"
		}
	],
	"bufferViews":[
		{
			"buffer":0,
			"byteLength":240,
			"byteOffset":0,
			"target":34962
		},
		{
			"buffer":0,
			"byteLength":240,
			"byteOffset":240,
			"target":34962
		},
		{
			"buffer":0,
			"byteLength":160,
			"byteOffset":480,
			"target":34962
		},
		{
			"buffer":0,
			"byteLength":84,
			"byteOffset":640,
			"target":34963
		},
		{
			"buffer":0,
			"byteLength":2112,
			"byteOffset":724,
			"target":34962
		},
		{
			"buffer":0,
			"byteLength":2112,
			"byteOffset":2836,
			"target":34962
		},
		{
			"buffer":0,
			"byteLength":1408,
			"byteOffset":4948,
			"target":34962
		},
		{
			"buffer":0,
			"byteLength":732,
			"byteOffset":6356,
			"target":34963
		},
		{
			"buffer":0,
			"byteLength":192,
			"byteOffset":7088,
			"target":34962
		},
		{
			"buffer":0,
			"byteLength":192,
			"byteOffset":7280,
			"target":34962
		},
		{
			"buffer":0,
			"byteLength":128,
			"byteOffset":7472,
			"target":34962
		},
		{
			"buffer":0,
			"byteLength":48,
			"byteOffset":7600,
			"target":34963
		}
	],
	"buffers":[
		{
			"byteLength":7648,
			"uri":"window_block.bin"
		}
	]
}
