{
	"asset":{
		"generator":"Khronos glTF Blender I/O v4.0.44",
		"version":"2.0"
	},
	"scene":0,
	"scenes":[
		{
			"name":"Scene",
			"nodes":[
				0,
				1,
				2,
				3,
				4,
				5,
				6,
				7,
				8,
				9,
				10
			]
		}
	],
	"nodes":[
		{
			"mesh":0,
			"name":"Facade",
			"scale":[
				0.29012051224708557,
				1.1062594652175903,
				0.29012051224708557
			],
			"translation":[
				-0.021458130329847336,
				1.0717811584472656,
				1.2538461685180664
			]
		},
		{
			"mesh":1,
			"name":"House Wall",
			"rotation":[
				0,
				0,
				-1,
				0
			],
			"scale":[
				1.3300001621246338,
				1.1435298919677734,
				0.6836051940917969
			],
			"translation":[
				-0.021458130329847336,
				0.5031364560127258,
				0.26453518867492676
			]
		},
		{
			"mesh":2,
			"name":"Roof",
			"rotation":[
				0,
				0,
				-1,
				0
			],
			"scale":[
				1.3300001621246338,
				1.1435298919677734,
				0.6836051940917969
			],
			"translation":[
				-0.021458130329847336,
				0.5031364560127258,
				0.26453518867492676
			]
		},
		{
			"mesh":3,
			"name":"RoofCross1",
			"scale":[
				0.02396331913769245,
				0.07398930937051773,
				0.01638614758849144
			],
			"translation":[
				-0.021458130329847336,
				3.31208872795105,
				1.2538461685180664
			]
		},
		{
			"mesh":4,
			"name":"RoofCross2",
			"rotation":[
				0,
				0,
				-0.704730749130249,
				0.7094748616218567
			],
			"scale":[
				0.018733825534582138,
				0.04736035317182541,
				0.01638614758849144
			],
			"translation":[
				-0.24338117241859436,
				3.8174164295196533,
				1.2538461685180664
			]
		},
		{
			"mesh":5,
			"name":"FrontWindow",
			"scale":[
				0.29012051224708557,
				1.1062594652175903,
				0.29012051224708557
			],
			"translation":[
				-0.021458130329847336,
				1.0717811584472656,
				1.2538461685180664
			]
		},
		{
			"mesh":6,
			"name":"WindowCross1",
			"rotation":[
				0,
				1,
				0,
				0
			],
			"scale":[
				-0.010062433779239655,
				-0.2863417863845825,
				-0.014328623190522194
			],
			"translation":[
				-0.014130104333162308,
				1.527162790298462,
				1.5306346416473389
			]
		},
		{
			"mesh":7,
			"name":"WindowCross2",
			"scale":[
				-0.018336687237024307,
				-0.011557956226170063,
				-0.018336687237024307
			],
			"translation":[
				-0.13522456586360931,
				1.51657235622406,
				1.5248312950134277
			]
		},
		{
			"mesh":8,
			"name":"Door",
			"scale":[
				0.1552686095237732,
				0.29012051224708557,
				0.29012051224708557
			],
			"translation":[
				-0.005576092749834061,
				0.2627617120742798,
				1.79355788230896
			]
		},
		{
			"mesh":9,
			"name":"Bell Tower Roof",
			"scale":[
				0.29012051224708557,
				1.1062594652175903,
				0.29012051224708557
			],
			"translation":[
				-0.021458130329847336,
				1.0717811584472656,
				1.2538461685180664
			]
		},
		{
			"mesh":10,
			"name":"SnowBall.002",
			"translation":[
				-0.026880012825131416,
				1.6245266199111938,
				-0.5797591209411621
			]
		}
	],
	"materials":[
		{
			"doubleSided":true,
			"name":"Material",
			"pbrMetallicRoughness":{
				"baseColorFactor":[
					0.800000011920929,
					0.800000011920929,
					0.800000011920929,
					1
				],
				"metallicFactor":0,
				"roughnessFactor":0.5
			}
		},
		{
			"doubleSided":true,
			"name":"Material.001",
			"pbrMetallicRoughness":{
				"baseColorFactor":[
					0.800000011920929,
					0.800000011920929,
					0.800000011920929,
					1
				],
				"metallicFactor":0,
				"roughnessFactor":0.5
			}
		},
		{
			"doubleSided":true,
			"name":"church roof",
			"pbrMetallicRoughness":{
				"baseColorFactor":[
					0.021596025675535202,
					0.021644486114382744,
					0.018692243844270706,
					1
				],
				"metallicFactor":0
			}
		},
		{
			"doubleSided":true,
			"name":"cross",
			"pbrMetallicRoughness":{
				"metallicFactor":0,
				"roughnessFactor":0.5
			}
		},
		{
			"doubleSided":true,
			"name":"Material.002",
			"pbrMetallicRoughness":{
				"baseColorFactor":[
					1,
					0.9765964150428772,
					0.032180096954107285,
					1
				],
				"metallicFactor":0,
				"roughnessFactor":0.5
			}
		},
		{
			"doubleSided":true,
			"name":"wood",
			"pbrMetallicRoughness":{
				"baseColorFactor":[
					0.5331763029098511,
					0.2266450971364975,
					0.07196688652038574,
					1
				],
				"metallicFactor":0,
				"roughnessFactor":0.5
			}
		},
		{
			"doubleSided":true,
			"name":"Material.003",
			"pbrMetallicRoughness":{
				"baseColorFactor":[
					0.22171492874622345,
					0.06374946236610413,
					0.003705208422616124,
					1
				],
				"metallicFactor":0,
				"roughnessFactor":0.5
			}
		}
	],
	"meshes":[
		{
			"name":"Cube.001",
			"primitives":[
				{
					"attributes":{
						"POSITION":0,
						"NORMAL":1,
						"TEXCOORD_0":2
					},
					"indices":3,
					"material":0
				}
			]
		},
		{
			"name":"Cube.002",
			"primitives":[
				{
					"attributes":{
						"POSITION":4,
						"NORMAL":5,
						"TEXCOORD_0":6
					},
					"indices":7,
					"material":1
				}
			]
		},
		{
			"name":"Cube.003",
			"primitives":[
				{
					"attributes":{
						"POSITION":8,
						"NORMAL":9,
						"TEXCOORD_0":10
					},
					"indices":11,
					"material":2
				}
			]
		},
		{
			"name":"Cube.004",
			"primitives":[
				{
					"attributes":{
						"POSITION":12,
						"NORMAL":13,
						"TEXCOORD_0":14
					},
					"indices":15,
					"material":3
				}
			]
		},
		{
			"name":"Cube.005",
			"primitives":[
				{
					"attributes":{
						"POSITION":16,
						"NORMAL":17,
						"TEXCOORD_0":18
					},
					"indices":19,
					"material":3
				}
			]
		},
		{
			"name":"Cube.007",
			"primitives":[
				{
					"attributes":{
						"POSITION":20,
						"NORMAL":21,
						"TEXCOORD_0":22
					},
					"indices":23,
					"material":4
				}
			]
		},
		{
			"name":"Cube.008",
			"primitives":[
				{
					"attributes":{
						"POSITION":24,
						"NORMAL":25,
						"TEXCOORD_0":26
					},
					"indices":27,
					"material":5
				}
			]
		},
		{
			"name":"Cube.009",
			"primitives":[
				{
					"attributes":{
						"POSITION":28,
						"NORMAL":29,
						"TEXCOORD_0":30
					},
					"indices":31,
					"material":5
				}
			]
		},
		{
			"name":"Cube.010",
			"primitives":[
				{
					"attributes":{
						"POSITION":32,
						"NORMAL":33,
						"TEXCOORD_0":34
					},
					"indices":15,
					"material":6
				}
			]
		},
		{
			"name":"Cube.016",
			"primitives":[
				{
					"attributes":{
						"POSITION":35,
						"NORMAL":36,
						"TEXCOORD_0":37
					},
					"indices":38,
					"material":2
				}
			]
		},
		{
			"name":"Mesh.002",
			"primitives":[
				{
					"attributes":{
						"POSITION":39,
						"NORMAL":40
					},
					"indices":41
				}
			]
		}
	],
	"accessors":[
		{
			"bufferView":0,
			"componentType":5126,
			"count":229,
			"max":[
				1.3669393062591553,
				1.642331838607788,
				1.3669393062591553
			],
			"min":[
				-1.3669393062591553,
				-1,
				-1.3669393062591553
			],
			"type":"VEC3"
		},
		{
			"bufferView":1,
			"componentType":5126,
			"count":229,
			"type":"VEC3"
		},
		{
			"bufferView":2,
			"componentType":5126,
			"count":229,
			"type":"VEC2"
		},
		{
			"bufferView":3,
			"componentType":5123,
			"count":495,
			"type":"SCALAR"
		},
		{
			"bufferView":4,
			"componentType":5126,
			"count":22,
			"max":[
				1,
				0.44011837244033813,
				1
			],
			"min":[
				-1,
				-1.2137906551361084,
				-3.6759021282196045
			],
			"type":"VEC3"
		},
		{
			"bufferView":5,
			"componentType":5126,
			"count":22,
			"type":"VEC3"
		},
		{
			"bufferView":6,
			"componentType":5126,
			"count":22,
			"type":"VEC2"
		},
		{
			"bufferView":7,
			"componentType":5123,
			"count":36,
			"type":"SCALAR"
		},
		{
			"bufferView":8,
			"componentType":5126,
			"count":82,
			"max":[
				1.1424506902694702,
				-0.5865582227706909,
				1.44792640209198
			],
			"min":[
				-1.1424506902694702,
				-1.3135093450546265,
				-3.9316132068634033
			],
			"type":"VEC3"
		},
		{
			"bufferView":9,
			"componentType":5126,
			"count":82,
			"type":"VEC3"
		},
		{
			"bufferView":10,
			"componentType":5126,
			"count":82,
			"type":"VEC2"
		},
		{
			"bufferView":11,
			"componentType":5123,
			"count":204,
			"type":"SCALAR"
		},
		{
			"bufferView":12,
			"componentType":5126,
			"count":24,
			"max":[
				1,
				10.370190620422363,
				1
			],
			"min":[
				-1,
				-1,
				-1
			],
			"type":"VEC3"
		},
		{
			"bufferView":13,
			"componentType":5126,
			"count":24,
			"type":"VEC3"
		},
		{
			"bufferView":14,
			"componentType":5126,
			"count":24,
			"type":"VEC2"
		},
		{
			"bufferView":15,
			"componentType":5123,
			"count":36,
			"type":"SCALAR"
		},
		{
			"bufferView":16,
			"componentType":5126,
			"count":48,
			"max":[
				1.000004529953003,
				10.370190620422363,
				0.9999999403953552
			],
			"min":[
				-0.9999953508377075,
				-1,
				-0.9999999403953552
			],
			"type":"VEC3"
		},
		{
			"bufferView":17,
			"componentType":5126,
			"count":48,
			"type":"VEC3"
		},
		{
			"bufferView":18,
			"componentType":5126,
			"count":48,
			"type":"VEC2"
		},
		{
			"bufferView":19,
			"componentType":5123,
			"count":72,
			"type":"SCALAR"
		},
		{
			"bufferView":20,
			"componentType":5126,
			"count":5,
			"max":[
				0.5053201913833618,
				0.6860333681106567,
				0.8604370951652527
			],
			"min":[
				-0.4593830704689026,
				0.1525595337152481,
				0.8459733128547668
			],
			"type":"VEC3"
		},
		{
			"bufferView":21,
			"componentType":5126,
			"count":5,
			"type":"VEC3"
		},
		{
			"bufferView":22,
			"componentType":5126,
			"count":5,
			"type":"VEC2"
		},
		{
			"bufferView":23,
			"componentType":5123,
			"count":9,
			"type":"SCALAR"
		},
		{
			"bufferView":24,
			"componentType":5126,
			"count":30,
			"max":[
				1,
				1,
				1
			],
			"min":[
				-1,
				-1.0619724988937378,
				-1
			],
			"type":"VEC3"
		},
		{
			"bufferView":25,
			"componentType":5126,
			"count":30,
			"type":"VEC3"
		},
		{
			"bufferView":26,
			"componentType":5126,
			"count":30,
			"type":"VEC2"
		},
		{
			"bufferView":27,
			"componentType":5123,
			"count":48,
			"type":"SCALAR"
		},
		{
			"bufferView":28,
			"componentType":5126,
			"count":48,
			"max":[
				0.9999995231628418,
				1,
				1
			],
			"min":[
				-14.207319259643555,
				-1,
				-1
			],
			"type":"VEC3"
		},
		{
			"bufferView":29,
			"componentType":5126,
			"count":48,
			"type":"VEC3"
		},
		{
			"bufferView":30,
			"componentType":5126,
			"count":48,
			"type":"VEC2"
		},
		{
			"bufferView":31,
			"componentType":5123,
			"count":84,
			"type":"SCALAR"
		},
		{
			"bufferView":32,
			"componentType":5126,
			"count":24,
			"max":[
				1,
				1,
				-0.9489283561706543
			],
			"min":[
				-1,
				-1,
				-1
			],
			"type":"VEC3"
		},
		{
			"bufferView":33,
			"componentType":5126,
			"count":24,
			"type":"VEC3"
		},
		{
			"bufferView":34,
			"componentType":5126,
			"count":24,
			"type":"VEC2"
		},
		{
			"bufferView":35,
			"componentType":5126,
			"count":20,
			"max":[
				1,
				1.9721283912658691,
				1
			],
			"min":[
				-1,
				1.642331838607788,
				-1
			],
			"type":"VEC3"
		},
		{
			"bufferView":36,
			"componentType":5126,
			"count":20,
			"type":"VEC3"
		},
		{
			"bufferView":37,
			"componentType":5126,
			"count":20,
			"type":"VEC2"
		},
		{
			"bufferView":38,
			"componentType":5123,
			"count":30,
			"type":"SCALAR"
		},
		{
			"bufferView":39,
			"componentType":5126,
			"count":14496,
			"max":[
				1.6145110130310059,
				0.49502524733543396,
				1.908172845840454
			],
			"min":[
				-1.5967662334442139,
				-0.45337924361228943,
				-1.903839111328125
			],
			"type":"VEC3"
		},
		{
			"bufferView":40,
			"componentType":5126,
			"count":14496,
			"type":"VEC3"
		},
		{
			"bufferView":41,
			"componentType":5123,
			"count":86976,
			"type":"SCALAR"
		}
	],
	"bufferViews":[
		{
			"buffer":0,
			"byteLength":2748,
			"byteOffset":0,
			"target":34962
		},
		{
			"buffer":0,
			"byteLength":2748,
			"byteOffset":2748,
			"target":34962
		},
		{
			"buffer":0,
			"byteLength":1832,
			"byteOffset":5496,
			"target":34962
		},
		{
			"buffer":0,
			"byteLength":990,
			"byteOffset":7328,
			"target":34963
		},
		{
			"buffer":0,
			"byteLength":264,
			"byteOffset":8320,
			"target":34962
		},
		{
			"buffer":0,
			"byteLength":264,
			"byteOffset":8584,
			"target":34962
		},
		{
			"buffer":0,
			"byteLength":176,
			"byteOffset":8848,
			"target":34962
		},
		{
			"buffer":0,
			"byteLength":72,
			"byteOffset":9024,
			"target":34963
		},
		{
			"buffer":0,
			"byteLength":984,
			"byteOffset":9096,
			"target":34962
		},
		{
			"buffer":0,
			"byteLength":984,
			"byteOffset":10080,
			"target":34962
		},
		{
			"buffer":0,
			"byteLength":656,
			"byteOffset":11064,
			"target":34962
		},
		{
			"buffer":0,
			"byteLength":408,
			"byteOffset":11720,
			"target":34963
		},
		{
			"buffer":0,
			"byteLength":288,
			"byteOffset":12128,
			"target":34962
		},
		{
			"buffer":0,
			"byteLength":288,
			"byteOffset":12416,
			"target":34962
		},
		{
			"buffer":0,
			"byteLength":192,
			"byteOffset":12704,
			"target":34962
		},
		{
			"buffer":0,
			"byteLength":72,
			"byteOffset":12896,
			"target":34963
		},
		{
			"buffer":0,
			"byteLength":576,
			"byteOffset":12968,
			"target":34962
		},
		{
			"buffer":0,
			"byteLength":576,
			"byteOffset":13544,
			"target":34962
		},
		{
			"buffer":0,
			"byteLength":384,
			"byteOffset":14120,
			"target":34962
		},
		{
			"buffer":0,
			"byteLength":144,
			"byteOffset":14504,
			"target":34963
		},
		{
			"buffer":0,
			"byteLength":60,
			"byteOffset":14648,
			"target":34962
		},
		{
			"buffer":0,
			"byteLength":60,
			"byteOffset":14708,
			"target":34962
		},
		{
			"buffer":0,
			"byteLength":40,
			"byteOffset":14768,
			"target":34962
		},
		{
			"buffer":0,
			"byteLength":18,
			"byteOffset":14808,
			"target":34963
		},
		{
			"buffer":0,
			"byteLength":360,
			"byteOffset":14828,
			"target":34962
		},
		{
			"buffer":0,
			"byteLength":360,
			"byteOffset":15188,
			"target":34962
		},
		{
			"buffer":0,
			"byteLength":240,
			"byteOffset":15548,
			"target":34962
		},
		{
			"buffer":0,
			"byteLength":96,
			"byteOffset":15788,
			"target":34963
		},
		{
			"buffer":0,
			"byteLength":576,
			"byteOffset":15884,
			"target":34962
		},
		{
			"buffer":0,
			"byteLength":576,
			"byteOffset":16460,
			"target":34962
		},
		{
			"buffer":0,
			"byteLength":384,
			"byteOffset":17036,
			"target":34962
		},
		{
			"buffer":0,
			"byteLength":168,
			"byteOffset":17420,
			"target":34963
		},
		{
			"buffer":0,
			"byteLength":288,
			"byteOffset":17588,
			"target":34962
		},
		{
			"buffer":0,
			"byteLength":288,
			"byteOffset":17876,
			"target":34962
		},
		{
			"buffer":0,
			"byteLength":192,
			"byteOffset":18164,
			"target":34962
		},
		{
			"buffer":0,
			"byteLength":240,
			"byteOffset":18356,
			"target":34962
		},
		{
			"buffer":0,
			"byteLength":240,
			"byteOffset":18596,
			"target":34962
		},
		{
			"buffer":0,
			"byteLength":160,
			"byteOffset":18836,
			"target":34962
		},
		{
			"buffer":0,
			"byteLength":60,
			"byteOffset":18996,
			"target":34963
		},
		{
			"buffer":0,
			"byteLength":173952,
			"byteOffset":19056,
			"target":34962
		},
		{
			"buffer":0,
			"byteLength":173952,
			"byteOffset":193008,
			"target":34962
		},
		{
			"buffer":0,
			"byteLength":173952,
			"byteOffset":366960,
			"target":34963
		}
	],
	"buffers":[
		{
			"byteLength":540912,
			"uri":"church.bin"
		}
	]
}
