{
	"asset":{
		"generator":"Khronos glTF Blender I/O v4.0.44",
		"version":"2.0"
	},
	"scene":0,
	"scenes":[
		{
			"name":"Scene",
			"nodes":[
				0,
				1
			]
		}
	],
	"nodes":[
		{
			"mesh":0,
			"name":"Cube",
			"scale":[
				2.4709954261779785,
				2.5939488410949707,
				2.5939488410949707
			]
		},
		{
			"mesh":1,
			"name":"Door",
			"scale":[
				2.4709954261779785,
				2.5939488410949707,
				2.5939488410949707
			],
			"translation":[
				0.036180369555950165,
				-0.24443566799163818,
				0.9692322015762329
			]
		}
	],
	"materials":[
		{
			"doubleSided":true,
			"name":"Material",
			"pbrMetallicRoughness":{
				"baseColorFactor":[
					0.800000011920929,
					0.800000011920929,
					0.800000011920929,
					1
				],
				"metallicFactor":0,
				"roughnessFactor":0.5
			}
		},
		{
			"doubleSided":true,
			"name":"Material.001",
			"pbrMetallicRoughness":{
				"baseColorFactor":[
					0.34819406270980835,
					0.12221209704875946,
					0.023865237832069397,
					1
				],
				"metallicFactor":0,
				"roughnessFactor":0.5
			}
		}
	],
	"meshes":[
		{
			"name":"Cube",
			"primitives":[
				{
					"attributes":{
						"POSITION":0,
						"NORMAL":1,
						"TEXCOORD_0":2
					},
					"indices":3,
					"material":0
				}
			]
		},
		{
			"name":"Cube.001",
			"primitives":[
				{
					"attributes":{
						"POSITION":4,
						"NORMAL":5,
						"TEXCOORD_0":6
					},
					"indices":7,
					"material":1
				}
			]
		}
	],
	"accessors":[
		{
			"bufferView":0,
			"componentType":5126,
			"count":30,
			"max":[
				0.390908420085907,
				0.38461965322494507,
				0.38461965322494507
			],
			"min":[
				-0.38461965322494507,
				-0.38461965322494507,
				-0.38461965322494507
			],
			"type":"VEC3"
		},
		{
			"bufferView":1,
			"componentType":5126,
			"count":30,
			"type":"VEC3"
		},
		{
			"bufferView":2,
			"componentType":5126,
			"count":30,
			"type":"VEC2"
		},
		{
			"bufferView":3,
			"componentType":5123,
			"count":66,
			"type":"SCALAR"
		},
		{
			"bufferView":4,
			"componentType":5126,
			"count":40,
			"max":[
				0.13688714802265167,
				0.27367401123046875,
				0.02355283685028553
			],
			"min":[
				-0.13688714802265167,
				-0.27367401123046875,
				-0.02355283685028553
			],
			"type":"VEC3"
		},
		{
			"bufferView":5,
			"componentType":5126,
			"count":40,
			"type":"VEC3"
		},
		{
			"bufferView":6,
			"componentType":5126,
			"count":40,
			"type":"VEC2"
		},
		{
			"bufferView":7,
			"componentType":5123,
			"count":66,
			"type":"SCALAR"
		}
	],
	"bufferViews":[
		{
			"buffer":0,
			"byteLength":360,
			"byteOffset":0,
			"target":34962
		},
		{
			"buffer":0,
			"byteLength":360,
			"byteOffset":360,
			"target":34962
		},
		{
			"buffer":0,
			"byteLength":240,
			"byteOffset":720,
			"target":34962
		},
		{
			"buffer":0,
			"byteLength":132,
			"byteOffset":960,
			"target":34963
		},
		{
			"buffer":0,
			"byteLength":480,
			"byteOffset":1092,
			"target":34962
		},
		{
			"buffer":0,
			"byteLength":480,
			"byteOffset":1572,
			"target":34962
		},
		{
			"buffer":0,
			"byteLength":320,
			"byteOffset":2052,
			"target":34962
		},
		{
			"buffer":0,
			"byteLength":132,
			"byteOffset":2372,
			"target":34963
		}
	],
	"buffers":[
		{
			"byteLength":2504,
			"uri":"door_block.bin"
		}
	]
}
