{
	"asset":{
		"generator":"Khronos glTF Blender I/O v4.0.44",
		"version":"2.0"
	},
	"extensionsUsed":[
		"KHR_materials_specular",
		"KHR_materials_ior",
		"KHR_materials_emissive_strength"
	],
	"scene":0,
	"scenes":[
		{
			"name":"Scene",
			"nodes":[
				0,
				1,
				2,
				3,
				4,
				5,
				6,
				7,
				8
			]
		}
	],
	"nodes":[
		{
			"mesh":0,
			"name":"Cube"
		},
		{
			"mesh":1,
			"name":"Cube.001",
			"rotation":[
				0,
				-1,
				0,
				7.549790126404332e-08
			],
			"scale":[
				0.5,
				0.5,
				0.5
			],
			"translation":[
				-0.024732008576393127,
				0,
				-0.2543902099132538
			]
		},
		{
			"mesh":2,
			"name":"roof",
			"rotation":[
				0,
				-1,
				0,
				7.549790126404332e-08
			],
			"scale":[
				0.5969388484954834,
				0.5,
				0.5
			],
			"translation":[
				-0.024732008576393127,
				0,
				-0.2543902099132538
			]
		},
		{
			"mesh":3,
			"name":"doorknob",
			"rotation":[
				0,
				-0.7096971273422241,
				-0.7045068740844727,
				5.358064214533442e-08
			],
			"scale":[
				0.015017584897577763,
				0.01501757837831974,
				0.01501757837831974
			],
			"translation":[
				0.07948565483093262,
				0.3440234661102295,
				0.2594309449195862
			]
		},
		{
			"mesh":4,
			"name":"plane",
			"rotation":[
				0,
				-1,
				0,
				7.549790126404332e-08
			],
			"translation":[
				-0.024732008576393127,
				0,
				-0.2543902099132538
			]
		},
		{
			"mesh":5,
			"name":"WindowPane",
			"rotation":[
				0,
				-1,
				0,
				7.549790126404332e-08
			],
			"translation":[
				-0.024732008576393127,
				0,
				-0.2543902099132538
			]
		},
		{
			"mesh":6,
			"name":"Cube.003",
			"rotation":[
				0,
				-1,
				0,
				7.549790126404332e-08
			],
			"translation":[
				-0.024732008576393127,
				0,
				-0.2543902099132538
			]
		},
		{
			"mesh":7,
			"name":"door",
			"rotation":[
				0,
				1,
				0,
				0
			],
			"scale":[
				-0.1828802078962326,
				-0.31580817699432373,
				-0.032682910561561584
			],
			"translation":[
				0,
				0.3538180887699127,
				0.23958244919776917
			]
		},
		{
			"mesh":8,
			"name":"SnowBall.001",
			"rotation":[
				0,
				-1,
				0,
				7.549790126404332e-08
			],
			"translation":[
				-0.030021635815501213,
				1.2282160520553589,
				-0.24491512775421143
			]
		}
	],
	"materials":[
		{
			"doubleSided":true,
			"extensions":{
				"KHR_materials_specular":{
					"specularFactor":0.7999998331069946
				},
				"KHR_materials_ior":{
					"ior":1.4500000476837158
				}
			},
			"name":"Material",
			"pbrMetallicRoughness":{
				"baseColorFactor":[
					0.3004731833934784,
					0.6848459243774414,
					0.8010476231575012,
					1
				],
				"metallicFactor":0,
				"roughnessFactor":0.4227272868156433
			}
		},
		{
			"doubleSided":true,
			"name":"Material.001",
			"pbrMetallicRoughness":{
				"baseColorFactor":[
					0.8004080057144165,
					0.3633427619934082,
					0.2074446678161621,
					1
				],
				"metallicFactor":0,
				"roughnessFactor":0.5
			}
		},
		{
			"doubleSided":true,
			"name":"Material.008",
			"pbrMetallicRoughness":{
				"baseColorFactor":[
					0.9207892417907715,
					0.9402334690093994,
					1,
					1
				],
				"metallicFactor":0,
				"roughnessFactor":0.5
			}
		},
		{
			"doubleSided":true,
			"name":"Material.004",
			"pbrMetallicRoughness":{
				"baseColorFactor":[
					0.5088714957237244,
					0.2917765974998474,
					0.20155394077301025,
					1
				],
				"metallicFactor":0
			}
		},
		{
			"doubleSided":true,
			"extensions":{
				"KHR_materials_specular":{
					"specularFactor":0
				},
				"KHR_materials_ior":{
					"ior":1.4500000476837158
				}
			},
			"name":"Material.003",
			"pbrMetallicRoughness":{
				"baseColorFactor":[
					1,
					0.8900872468948364,
					0.1484055072069168,
					1
				],
				"metallicFactor":0,
				"roughnessFactor":0.5
			}
		},
		{
			"doubleSided":true,
			"extensions":{
				"KHR_materials_specular":{
					"specularColorFactor":[
						1.8454545736312866,
						1.8454545736312866,
						1.8454545736312866
					]
				},
				"KHR_materials_ior":{
					"ior":1.4500000476837158
				}
			},
			"name":"Material.006",
			"pbrMetallicRoughness":{
				"baseColorFactor":[
					0.3004731833934784,
					0.6848459243774414,
					0.8010476231575012,
					1
				],
				"metallicFactor":0,
				"roughnessFactor":0.5727272629737854
			}
		},
		{
			"doubleSided":true,
			"name":"Material.009",
			"pbrMetallicRoughness":{
				"baseColorFactor":[
					0.5088714957237244,
					0.2788977324962616,
					0.17788514494895935,
					1
				],
				"metallicFactor":0,
				"roughnessFactor":0.5
			}
		},
		{
			"doubleSided":true,
			"emissiveFactor":[
				1,
				1,
				1
			],
			"extensions":{
				"KHR_materials_emissive_strength":{
					"emissiveStrength":2.5999999046325684
				}
			},
			"name":"Material.010",
			"pbrMetallicRoughness":{
				"baseColorFactor":[
					0.800000011920929,
					0.800000011920929,
					0.800000011920929,
					1
				],
				"metallicFactor":0,
				"roughnessFactor":0.5
			}
		}
	],
	"meshes":[
		{
			"name":"Cube",
			"primitives":[
				{
					"attributes":{
						"POSITION":0,
						"NORMAL":1,
						"TEXCOORD_0":2
					},
					"indices":3,
					"material":0
				}
			]
		},
		{
			"name":"Cube.001",
			"primitives":[
				{
					"attributes":{
						"POSITION":4,
						"NORMAL":5,
						"TEXCOORD_0":6
					},
					"indices":7,
					"material":0
				}
			]
		},
		{
			"name":"Cube.009",
			"primitives":[
				{
					"attributes":{
						"POSITION":8,
						"NORMAL":9,
						"TEXCOORD_0":10
					},
					"indices":11,
					"material":1
				}
			]
		},
		{
			"name":"Cylinder",
			"primitives":[
				{
					"attributes":{
						"POSITION":12,
						"NORMAL":13,
						"TEXCOORD_0":14
					},
					"indices":15,
					"material":2
				}
			]
		},
		{
			"name":"Cube.018",
			"primitives":[
				{
					"attributes":{
						"POSITION":16,
						"NORMAL":17,
						"TEXCOORD_0":18
					},
					"indices":19,
					"material":3
				}
			]
		},
		{
			"name":"Cube.019",
			"primitives":[
				{
					"attributes":{
						"POSITION":20,
						"NORMAL":21,
						"TEXCOORD_0":22
					},
					"indices":23,
					"material":4
				}
			]
		},
		{
			"name":"Cube.020",
			"primitives":[
				{
					"attributes":{
						"POSITION":24,
						"NORMAL":25,
						"TEXCOORD_0":26
					},
					"indices":27,
					"material":5
				}
			]
		},
		{
			"name":"Cube.022",
			"primitives":[
				{
					"attributes":{
						"POSITION":28,
						"NORMAL":29,
						"TEXCOORD_0":30
					},
					"indices":31,
					"material":6
				}
			]
		},
		{
			"name":"Mesh.012",
			"primitives":[
				{
					"attributes":{
						"POSITION":32,
						"NORMAL":33
					},
					"indices":34,
					"material":7
				}
			]
		}
	],
	"accessors":[
		{
			"bufferView":0,
			"componentType":5126,
			"count":48,
			"max":[
				0.5,
				1.0310662984848022,
				0.5
			],
			"min":[
				-0.5,
				0.031066298484802246,
				-0.5
			],
			"type":"VEC3"
		},
		{
			"bufferView":1,
			"componentType":5126,
			"count":48,
			"type":"VEC3"
		},
		{
			"bufferView":2,
			"componentType":5126,
			"count":48,
			"type":"VEC2"
		},
		{
			"bufferView":3,
			"componentType":5123,
			"count":96,
			"type":"SCALAR"
		},
		{
			"bufferView":4,
			"componentType":5126,
			"count":6,
			"max":[
				1,
				2.9295711517333984,
				1
			],
			"min":[
				-1,
				2.0621325969696045,
				-1
			],
			"type":"VEC3"
		},
		{
			"bufferView":5,
			"componentType":5126,
			"count":6,
			"type":"VEC3"
		},
		{
			"bufferView":6,
			"componentType":5126,
			"count":6,
			"type":"VEC2"
		},
		{
			"bufferView":7,
			"componentType":5123,
			"count":6,
			"type":"SCALAR"
		},
		{
			"bufferView":8,
			"componentType":5126,
			"count":87,
			"max":[
				1,
				2.998544692993164,
				1.2990150451660156
			],
			"min":[
				-1,
				1.8726866245269775,
				-1.2990150451660156
			],
			"type":"VEC3"
		},
		{
			"bufferView":9,
			"componentType":5126,
			"count":87,
			"type":"VEC3"
		},
		{
			"bufferView":10,
			"componentType":5126,
			"count":87,
			"type":"VEC2"
		},
		{
			"bufferView":11,
			"componentType":5123,
			"count":180,
			"type":"SCALAR"
		},
		{
			"bufferView":12,
			"componentType":5126,
			"count":144,
			"max":[
				1.4516087770462036,
				3.066619634628296,
				1.4516088962554932
			],
			"min":[
				-1.4516087770462036,
				-1,
				-1.4516088962554932
			],
			"type":"VEC3"
		},
		{
			"bufferView":13,
			"componentType":5126,
			"count":144,
			"type":"VEC3"
		},
		{
			"bufferView":14,
			"componentType":5126,
			"count":144,
			"type":"VEC2"
		},
		{
			"bufferView":15,
			"componentType":5123,
			"count":228,
			"type":"SCALAR"
		},
		{
			"bufferView":16,
			"componentType":5126,
			"count":256,
			"max":[
				0.5161994099617004,
				0.7454580068588257,
				0.21193327009677887
			],
			"min":[
				0.47556453943252563,
				0.32159149646759033,
				-0.21193327009677887
			],
			"type":"VEC3"
		},
		{
			"bufferView":17,
			"componentType":5126,
			"count":256,
			"type":"VEC3"
		},
		{
			"bufferView":18,
			"componentType":5126,
			"count":256,
			"type":"VEC2"
		},
		{
			"bufferView":19,
			"componentType":5123,
			"count":546,
			"type":"SCALAR"
		},
		{
			"bufferView":20,
			"componentType":5126,
			"count":16,
			"max":[
				0.47556453943252563,
				0.7176945805549622,
				0.18416982889175415
			],
			"min":[
				0.47556453943252563,
				0.34935492277145386,
				-0.18416982889175415
			],
			"type":"VEC3"
		},
		{
			"bufferView":21,
			"componentType":5126,
			"count":16,
			"type":"VEC3"
		},
		{
			"bufferView":22,
			"componentType":5126,
			"count":16,
			"type":"VEC2"
		},
		{
			"bufferView":23,
			"componentType":5123,
			"count":24,
			"type":"SCALAR"
		},
		{
			"bufferView":24,
			"componentType":5126,
			"count":52,
			"max":[
				0.5,
				1.0310662984848022,
				0.5
			],
			"min":[
				-0.5,
				0.031066298484802246,
				-0.5
			],
			"type":"VEC3"
		},
		{
			"bufferView":25,
			"componentType":5126,
			"count":52,
			"type":"VEC3"
		},
		{
			"bufferView":26,
			"componentType":5126,
			"count":52,
			"type":"VEC2"
		},
		{
			"bufferView":27,
			"componentType":5123,
			"count":102,
			"type":"SCALAR"
		},
		{
			"bufferView":28,
			"componentType":5126,
			"count":40,
			"max":[
				1,
				1,
				1
			],
			"min":[
				-1,
				-1,
				-1
			],
			"type":"VEC3"
		},
		{
			"bufferView":29,
			"componentType":5126,
			"count":40,
			"type":"VEC3"
		},
		{
			"bufferView":30,
			"componentType":5126,
			"count":40,
			"type":"VEC2"
		},
		{
			"bufferView":31,
			"componentType":5123,
			"count":66,
			"type":"SCALAR"
		},
		{
			"bufferView":32,
			"componentType":5126,
			"count":2472,
			"max":[
				0.6795071959495544,
				0.3675711452960968,
				0.7211430072784424
			],
			"min":[
				-0.6708444356918335,
				-0.3292607069015503,
				-0.7182928919792175
			],
			"type":"VEC3"
		},
		{
			"bufferView":33,
			"componentType":5126,
			"count":2472,
			"type":"VEC3"
		},
		{
			"bufferView":34,
			"componentType":5123,
			"count":14820,
			"type":"SCALAR"
		}
	],
	"bufferViews":[
		{
			"buffer":0,
			"byteLength":576,
			"byteOffset":0,
			"target":34962
		},
		{
			"buffer":0,
			"byteLength":576,
			"byteOffset":576,
			"target":34962
		},
		{
			"buffer":0,
			"byteLength":384,
			"byteOffset":1152,
			"target":34962
		},
		{
			"buffer":0,
			"byteLength":192,
			"byteOffset":1536,
			"target":34963
		},
		{
			"buffer":0,
			"byteLength":72,
			"byteOffset":1728,
			"target":34962
		},
		{
			"buffer":0,
			"byteLength":72,
			"byteOffset":1800,
			"target":34962
		},
		{
			"buffer":0,
			"byteLength":48,
			"byteOffset":1872,
			"target":34962
		},
		{
			"buffer":0,
			"byteLength":12,
			"byteOffset":1920,
			"target":34963
		},
		{
			"buffer":0,
			"byteLength":1044,
			"byteOffset":1932,
			"target":34962
		},
		{
			"buffer":0,
			"byteLength":1044,
			"byteOffset":2976,
			"target":34962
		},
		{
			"buffer":0,
			"byteLength":696,
			"byteOffset":4020,
			"target":34962
		},
		{
			"buffer":0,
			"byteLength":360,
			"byteOffset":4716,
			"target":34963
		},
		{
			"buffer":0,
			"byteLength":1728,
			"byteOffset":5076,
			"target":34962
		},
		{
			"buffer":0,
			"byteLength":1728,
			"byteOffset":6804,
			"target":34962
		},
		{
			"buffer":0,
			"byteLength":1152,
			"byteOffset":8532,
			"target":34962
		},
		{
			"buffer":0,
			"byteLength":456,
			"byteOffset":9684,
			"target":34963
		},
		{
			"buffer":0,
			"byteLength":3072,
			"byteOffset":10140,
			"target":34962
		},
		{
			"buffer":0,
			"byteLength":3072,
			"byteOffset":13212,
			"target":34962
		},
		{
			"buffer":0,
			"byteLength":2048,
			"byteOffset":16284,
			"target":34962
		},
		{
			"buffer":0,
			"byteLength":1092,
			"byteOffset":18332,
			"target":34963
		},
		{
			"buffer":0,
			"byteLength":192,
			"byteOffset":19424,
			"target":34962
		},
		{
			"buffer":0,
			"byteLength":192,
			"byteOffset":19616,
			"target":34962
		},
		{
			"buffer":0,
			"byteLength":128,
			"byteOffset":19808,
			"target":34962
		},
		{
			"buffer":0,
			"byteLength":48,
			"byteOffset":19936,
			"target":34963
		},
		{
			"buffer":0,
			"byteLength":624,
			"byteOffset":19984,
			"target":34962
		},
		{
			"buffer":0,
			"byteLength":624,
			"byteOffset":20608,
			"target":34962
		},
		{
			"buffer":0,
			"byteLength":416,
			"byteOffset":21232,
			"target":34962
		},
		{
			"buffer":0,
			"byteLength":204,
			"byteOffset":21648,
			"target":34963
		},
		{
			"buffer":0,
			"byteLength":480,
			"byteOffset":21852,
			"target":34962
		},
		{
			"buffer":0,
			"byteLength":480,
			"byteOffset":22332,
			"target":34962
		},
		{
			"buffer":0,
			"byteLength":320,
			"byteOffset":22812,
			"target":34962
		},
		{
			"buffer":0,
			"byteLength":132,
			"byteOffset":23132,
			"target":34963
		},
		{
			"buffer":0,
			"byteLength":29664,
			"byteOffset":23264,
			"target":34962
		},
		{
			"buffer":0,
			"byteLength":29664,
			"byteOffset":52928,
			"target":34962
		},
		{
			"buffer":0,
			"byteLength":29640,
			"byteOffset":82592,
			"target":34963
		}
	],
	"buffers":[
		{
			"byteLength":112232,
			"uri":"house_small.bin"
		}
	]
}
