{
	"asset":{
		"generator":"Khronos glTF Blender I/O v4.0.44",
		"version":"2.0"
	},
	"scene":0,
	"scenes":[
		{
			"name":"Scene",
			"nodes":[
				0,
				1
			]
		}
	],
	"nodes":[
		{
			"mesh":0,
			"name":"Snow",
			"translation":[
				0.006056070327758789,
				1.0047801733016968,
				0.011399819515645504
			]
		},
		{
			"mesh":1,
			"name":"Cube",
			"scale":[
				0.5,
				0.5,
				0.5
			],
			"translation":[
				0,
				0.5,
				0
			]
		}
	],
	"materials":[
		{
			"doubleSided":true,
			"name":"Material.002",
			"pbrMetallicRoughness":{
				"baseColorFactor":[
					0.800000011920929,
					0.800000011920929,
					0.800000011920929,
					1
				],
				"metallicFactor":0,
				"roughnessFactor":0.10000000149011612
			}
		},
		{
			"doubleSided":true,
			"name":"Material.001",
			"pbrMetallicRoughness":{
				"baseColorFactor":[
					0.800000011920929,
					0.800000011920929,
					0.800000011920929,
					1
				],
				"metallicFactor":0,
				"roughnessFactor":0.23181816935539246
			}
		}
	],
	"meshes":[
		{
			"name":"Mesh.019",
			"primitives":[
				{
					"attributes":{
						"POSITION":0,
						"NORMAL":1
					},
					"indices":2,
					"material":0
				}
			]
		},
		{
			"name":"Cube.003",
			"primitives":[
				{
					"attributes":{
						"POSITION":3,
						"NORMAL":4,
						"TEXCOORD_0":5
					},
					"indices":6,
					"material":1
				}
			]
		}
	],
	"accessors":[
		{
			"bufferView":0,
			"componentType":5126,
			"count":1206,
			"max":[
				0.6180846691131592,
				0.19926753640174866,
				0.6265262961387634
			],
			"min":[
				-0.6043975949287415,
				-0.20881181955337524,
				-0.6413967609405518
			],
			"type":"VEC3"
		},
		{
			"bufferView":1,
			"componentType":5126,
			"count":1206,
			"type":"VEC3"
		},
		{
			"bufferView":2,
			"componentType":5123,
			"count":7224,
			"type":"SCALAR"
		},
		{
			"bufferView":3,
			"componentType":5126,
			"count":24,
			"max":[
				1,
				1,
				1
			],
			"min":[
				-1,
				-1,
				-1
			],
			"type":"VEC3"
		},
		{
			"bufferView":4,
			"componentType":5126,
			"count":24,
			"type":"VEC3"
		},
		{
			"bufferView":5,
			"componentType":5126,
			"count":24,
			"type":"VEC2"
		},
		{
			"bufferView":6,
			"componentType":5123,
			"count":36,
			"type":"SCALAR"
		}
	],
	"bufferViews":[
		{
			"buffer":0,
			"byteLength":14472,
			"byteOffset":0,
			"target":34962
		},
		{
			"buffer":0,
			"byteLength":14472,
			"byteOffset":14472,
			"target":34962
		},
		{
			"buffer":0,
			"byteLength":14448,
			"byteOffset":28944,
			"target":34963
		},
		{
			"buffer":0,
			"byteLength":288,
			"byteOffset":43392,
			"target":34962
		},
		{
			"buffer":0,
			"byteLength":288,
			"byteOffset":43680,
			"target":34962
		},
		{
			"buffer":0,
			"byteLength":192,
			"byteOffset":43968,
			"target":34962
		},
		{
			"buffer":0,
			"byteLength":72,
			"byteOffset":44160,
			"target":34963
		}
	],
	"buffers":[
		{
			"byteLength":44232,
			"uri":"snow_full_height.bin"
		}
	]
}
